<svg width="42" height="42" viewBox="0 0 42 42" fill="none" xmlns="http://www.w3.org/2000/svg">
<g clip-path="url(#clip0)">
<path d="M41.8423 40.0575L32.6548 23.4325C32.4098 22.995 32.0248 22.785 31.4823 22.75C30.9923 22.75 30.5548 23.03 30.3273 23.4675L28.8398 26.3725L35.8048 38.7625C36.3648 39.7425 36.4523 40.9325 36.0673 42H40.6873C41.1598 42 41.5798 41.755 41.8248 41.3525C42.0523 40.95 42.0523 40.46 41.8423 40.0575Z" fill="#FF5A00"/>
<path d="M33.5125 40.04L25.13 25.1125L21.7875 27.9475C21.0875 28.5425 20.1775 28.875 19.25 28.875C18.27 28.875 17.3425 28.525 16.625 27.8775C15.9075 28.525 14.98 28.875 14 28.875C13.0725 28.875 12.1625 28.5425 11.445 27.93L8.25999 25.235L0.157488 40.0575C-0.0700115 40.46 -0.0525115 40.95 0.174988 41.3525C0.419989 41.755 0.857489 42 1.31249 42H32.375C32.8475 42 33.2675 41.755 33.5125 41.3525C33.74 40.95 33.74 40.4425 33.5125 40.04Z" fill="#FF5A00"/>
<path d="M26.6875 8.75H16.625C15.9005 8.75 15.3125 8.162 15.3125 7.4375V1.3125C15.3125 0.588 15.9005 0 16.625 0H26.6875C27.2002 0 27.6657 0.2975 27.8792 0.76475C28.0945 1.23025 28.0175 1.778 27.6832 2.16825L25.7915 4.375L27.685 6.5835C28.0192 6.97375 28.0945 7.5215 27.881 7.987C27.6657 8.4525 27.2002 8.75 26.6875 8.75Z" fill="#FF5A00"/>
<path d="M16.625 14C15.9005 14 15.3125 13.412 15.3125 12.6875V1.3125C15.3125 0.588 15.9005 0 16.625 0C17.3495 0 17.9375 0.588 17.9375 1.3125V12.6875C17.9375 13.412 17.3495 14 16.625 14Z" fill="#FF5A00"/>
<path d="M23.8176 22.785L20.0901 25.935C19.8451 26.145 19.5476 26.25 19.2501 26.25C18.9176 26.25 18.5851 26.1275 18.3226 25.865L16.6251 24.1675L14.9276 25.865C14.4376 26.355 13.6676 26.3725 13.1601 25.935L9.5376 22.89L10.8326 20.545L15.4701 12.0575C15.6976 11.6375 16.1351 11.375 16.6251 11.375C17.0626 11.3225 17.5351 11.62 17.7626 12.04L22.5051 20.4575L23.8176 22.785Z" fill="#FF5A00"/>
</g>
<defs>
<clipPath id="clip0">
<rect width="42" height="42" fill="white"/>
</clipPath>
</defs>
</svg>
