<svg width="40" height="40" viewBox="0 0 40 40" fill="none" xmlns="http://www.w3.org/2000/svg">
<path d="M13.335 20C13.335 18.6812 13.7261 17.392 14.4589 16.2955C15.1916 15.199 16.2331 14.3444 17.4515 13.8398C18.67 13.3352 20.0107 13.2033 21.3042 13.4608C22.5976 13.7183 23.7857 14.3535 24.718 15.2863C25.6504 16.219 26.2852 17.4072 26.5422 18.7008C26.7992 19.9943 26.6668 21.335 26.1617 22.5533C25.6567 23.7716 24.8017 24.8127 23.7049 25.545C22.6082 26.2774 21.3188 26.668 20 26.6675C18.2321 26.6668 16.5368 25.9641 15.287 24.7137C14.0371 23.4634 13.335 21.7679 13.335 20ZM9.73 20C9.73 22.0312 10.3323 24.0168 11.4608 25.7057C12.5893 27.3946 14.1932 28.7109 16.0698 29.4882C17.9464 30.2656 20.0114 30.4689 22.0036 30.0727C23.9958 29.6764 25.8257 28.6983 27.262 27.262C28.6983 25.8257 29.6764 23.9958 30.0727 22.0036C30.4689 20.0114 30.2656 17.9464 29.4882 16.0698C28.7109 14.1932 27.3946 12.5893 25.7057 11.4608C24.0168 10.3323 22.0312 9.73 20 9.73C17.2762 9.73 14.664 10.812 12.738 12.738C10.812 14.664 9.73 17.2762 9.73 20ZM28.275 9.3225C28.275 9.79718 28.4158 10.2612 28.6795 10.6559C28.9432 11.0505 29.318 11.3582 29.7566 11.5398C30.1951 11.7215 30.6777 11.769 31.1432 11.6764C31.6088 11.5838 32.0364 11.3552 32.3721 11.0196C32.7077 10.6839 32.9363 10.2563 33.0289 9.79072C33.1215 9.32516 33.074 8.8426 32.8923 8.40406C32.7107 7.96552 32.403 7.59069 32.0084 7.32697C31.6137 7.06326 31.1497 6.9225 30.675 6.9225C30.0385 6.9225 29.428 7.17536 28.9779 7.62544C28.5279 8.07553 28.275 8.68598 28.275 9.3225ZM11.92 36.28C10.6514 36.2657 9.39471 36.0331 8.205 35.5925C7.33609 35.2702 6.55024 34.7577 5.905 34.0925C5.23858 33.4482 4.72589 32.6621 4.405 31.7925C3.96412 30.6029 3.73155 29.3461 3.7175 28.0775C3.62 25.97 3.6 25.3275 3.6 19.995C3.6 14.6625 3.62 14.0225 3.7175 11.9125C3.73323 10.644 3.96575 9.38759 4.405 8.1975C4.72726 7.32859 5.23977 6.54274 5.905 5.8975C6.54915 5.23095 7.33532 4.71823 8.205 4.3975C9.39464 3.95662 10.6514 3.72405 11.92 3.71C14.0275 3.6125 14.67 3.5925 20 3.5925C25.33 3.5925 25.9725 3.6125 28.0825 3.71C29.351 3.72573 30.6074 3.95825 31.7975 4.3975C32.6667 4.71915 33.4527 5.23175 34.0975 5.8975C34.7633 6.54231 35.2758 7.32828 35.5975 8.1975C36.0384 9.38714 36.271 10.6439 36.285 11.9125C36.3825 14.0225 36.4025 14.6625 36.4025 19.995C36.4025 25.3275 36.3825 25.9675 36.285 28.0775C36.2699 29.346 36.0374 30.6026 35.5975 31.7925C35.2645 32.6551 34.7546 33.4385 34.1006 34.0921C33.4465 34.7457 32.6628 35.2551 31.8 35.5875C30.6104 36.0284 29.3536 36.261 28.085 36.275C25.9775 36.3725 25.335 36.3925 20.0025 36.3925C14.67 36.3925 14.03 36.3725 11.9225 36.275L11.92 36.28ZM11.75 0.12C10.0924 0.153612 8.45247 0.46807 6.9 1.05C5.56549 1.55255 4.35659 2.34 3.3575 3.3575C2.33906 4.35582 1.55147 5.56494 1.05 6.9C0.468163 8.4525 0.153709 10.0924 0.12 11.75C0.0225 13.8875 0 14.5675 0 20C0 25.4325 0.0225 26.1125 0.12 28.25C0.15366 29.9076 0.468116 31.5475 1.05 33.1C1.55161 34.435 2.33919 35.6441 3.3575 36.6425C4.35705 37.6594 5.56582 38.4468 6.9 38.95C8.45412 39.5323 10.0957 39.8467 11.755 39.88C13.8875 39.975 14.5675 40 20 40C25.4325 40 26.1125 39.9775 28.25 39.88C29.9093 39.8469 31.5509 39.5324 33.105 38.95C34.4338 38.4363 35.6407 37.6505 36.6481 36.6431C37.6555 35.6357 38.4413 34.4288 38.955 33.1C39.5382 31.5461 39.8527 29.9044 39.885 28.245C39.975 26.1125 40 25.4325 40 20C40 14.5675 39.9775 13.8875 39.88 11.75C39.8464 10.0924 39.5319 8.45247 38.95 6.9C38.4467 5.56585 37.6594 4.3571 36.6425 3.3575C35.6446 2.33974 34.4364 1.55223 33.1025 1.05C31.5493 0.467418 29.9085 0.152944 28.25 0.12C26.115 0.025 25.4325 0 20 0C14.5675 0 13.8875 0.0225 11.75 0.12Z" fill="url(#paint0_radial)"/>
<path d="M13.335 20C13.335 18.6812 13.7261 17.392 14.4589 16.2955C15.1916 15.199 16.2331 14.3444 17.4515 13.8398C18.67 13.3352 20.0107 13.2033 21.3042 13.4608C22.5976 13.7183 23.7857 14.3535 24.718 15.2863C25.6504 16.219 26.2852 17.4072 26.5422 18.7008C26.7992 19.9943 26.6668 21.335 26.1617 22.5533C25.6567 23.7716 24.8017 24.8127 23.7049 25.545C22.6082 26.2774 21.3188 26.668 20 26.6675C18.2321 26.6668 16.5368 25.9641 15.287 24.7137C14.0371 23.4634 13.335 21.7679 13.335 20ZM9.73 20C9.73 22.0312 10.3323 24.0168 11.4608 25.7057C12.5893 27.3946 14.1932 28.7109 16.0698 29.4882C17.9464 30.2656 20.0114 30.4689 22.0036 30.0727C23.9958 29.6764 25.8257 28.6983 27.262 27.262C28.6983 25.8257 29.6764 23.9958 30.0727 22.0036C30.4689 20.0114 30.2656 17.9464 29.4882 16.0698C28.7109 14.1932 27.3946 12.5893 25.7057 11.4608C24.0168 10.3323 22.0312 9.73 20 9.73C17.2762 9.73 14.664 10.812 12.738 12.738C10.812 14.664 9.73 17.2762 9.73 20ZM28.275 9.3225C28.275 9.79718 28.4158 10.2612 28.6795 10.6559C28.9432 11.0505 29.318 11.3582 29.7566 11.5398C30.1951 11.7215 30.6777 11.769 31.1432 11.6764C31.6088 11.5838 32.0364 11.3552 32.3721 11.0196C32.7077 10.6839 32.9363 10.2563 33.0289 9.79072C33.1215 9.32516 33.074 8.8426 32.8923 8.40406C32.7107 7.96552 32.403 7.59069 32.0084 7.32697C31.6137 7.06326 31.1497 6.9225 30.675 6.9225C30.0385 6.9225 29.428 7.17536 28.9779 7.62544C28.5279 8.07553 28.275 8.68598 28.275 9.3225ZM11.92 36.28C10.6514 36.2657 9.39471 36.0331 8.205 35.5925C7.33609 35.2702 6.55024 34.7577 5.905 34.0925C5.23858 33.4482 4.72589 32.6621 4.405 31.7925C3.96412 30.6029 3.73155 29.3461 3.7175 28.0775C3.62 25.97 3.6 25.3275 3.6 19.995C3.6 14.6625 3.62 14.0225 3.7175 11.9125C3.73323 10.644 3.96575 9.38759 4.405 8.1975C4.72726 7.32859 5.23977 6.54274 5.905 5.8975C6.54915 5.23095 7.33532 4.71823 8.205 4.3975C9.39464 3.95662 10.6514 3.72405 11.92 3.71C14.0275 3.6125 14.67 3.5925 20 3.5925C25.33 3.5925 25.9725 3.6125 28.0825 3.71C29.351 3.72573 30.6074 3.95825 31.7975 4.3975C32.6667 4.71915 33.4527 5.23175 34.0975 5.8975C34.7633 6.54231 35.2758 7.32828 35.5975 8.1975C36.0384 9.38714 36.271 10.6439 36.285 11.9125C36.3825 14.0225 36.4025 14.6625 36.4025 19.995C36.4025 25.3275 36.3825 25.9675 36.285 28.0775C36.2699 29.346 36.0374 30.6026 35.5975 31.7925C35.2645 32.6551 34.7546 33.4385 34.1006 34.0921C33.4465 34.7457 32.6628 35.2551 31.8 35.5875C30.6104 36.0284 29.3536 36.261 28.085 36.275C25.9775 36.3725 25.335 36.3925 20.0025 36.3925C14.67 36.3925 14.03 36.3725 11.9225 36.275L11.92 36.28ZM11.75 0.12C10.0924 0.153612 8.45247 0.46807 6.9 1.05C5.56549 1.55255 4.35659 2.34 3.3575 3.3575C2.33906 4.35582 1.55147 5.56494 1.05 6.9C0.468163 8.4525 0.153709 10.0924 0.12 11.75C0.0225 13.8875 0 14.5675 0 20C0 25.4325 0.0225 26.1125 0.12 28.25C0.15366 29.9076 0.468116 31.5475 1.05 33.1C1.55161 34.435 2.33919 35.6441 3.3575 36.6425C4.35705 37.6594 5.56582 38.4468 6.9 38.95C8.45412 39.5323 10.0957 39.8467 11.755 39.88C13.8875 39.975 14.5675 40 20 40C25.4325 40 26.1125 39.9775 28.25 39.88C29.9093 39.8469 31.5509 39.5324 33.105 38.95C34.4338 38.4363 35.6407 37.6505 36.6481 36.6431C37.6555 35.6357 38.4413 34.4288 38.955 33.1C39.5382 31.5461 39.8527 29.9044 39.885 28.245C39.975 26.1125 40 25.4325 40 20C40 14.5675 39.9775 13.8875 39.88 11.75C39.8464 10.0924 39.5319 8.45247 38.95 6.9C38.4467 5.56585 37.6594 4.3571 36.6425 3.3575C35.6446 2.33974 34.4364 1.55223 33.1025 1.05C31.5493 0.467418 29.9085 0.152944 28.25 0.12C26.115 0.025 25.4325 0 20 0C14.5675 0 13.8875 0.0225 11.75 0.12Z" fill="url(#paint1_radial)"/>
<defs>
<radialGradient id="paint0_radial" cx="0" cy="0" r="1" gradientUnits="userSpaceOnUse" gradientTransform="translate(5.32 40.2) scale(52.2)">
<stop offset="0.09" stop-color="#FA8F21"/>
<stop offset="0.78" stop-color="#D82D7E"/>
</radialGradient>
<radialGradient id="paint1_radial" cx="0" cy="0" r="1" gradientUnits="userSpaceOnUse" gradientTransform="translate(24.24 42) scale(41.16)">
<stop offset="0.64" stop-color="#8C3AAA" stop-opacity="0"/>
<stop offset="1" stop-color="#8C3AAA"/>
</radialGradient>
</defs>
</svg>
