<svg width="26" height="25" viewBox="0 0 26 25" fill="none" xmlns="http://www.w3.org/2000/svg">
<path d="M9.04109 12.2001C9.04109 11.4009 9.2781 10.6196 9.72215 9.95514C10.1662 9.29065 10.7973 8.77277 11.5357 8.46699C12.2741 8.16122 13.0866 8.08129 13.8704 8.23732C14.6542 8.39335 15.3742 8.77832 15.9392 9.34355C16.5042 9.90877 16.8889 10.6289 17.0447 11.4127C17.2004 12.1966 17.1202 13.0091 16.8141 13.7474C16.5081 14.4856 15.9899 15.1166 15.3253 15.5604C14.6606 16.0042 13.8793 16.2409 13.0801 16.2406C12.0087 16.2402 10.9814 15.8143 10.224 15.0566C9.46658 14.2989 9.04109 13.2714 9.04109 12.2001ZM6.85646 12.2001C6.85646 13.431 7.22147 14.6343 7.90533 15.6577C8.58919 16.6812 9.56119 17.4789 10.6984 17.95C11.8356 18.421 13.087 18.5443 14.2943 18.3041C15.5015 18.064 16.6105 17.4712 17.4808 16.6008C18.3512 15.7305 18.944 14.6215 19.1841 13.4142C19.4243 12.207 19.301 10.9556 18.83 9.8184C18.3589 8.68118 17.5612 7.70919 16.5377 7.02533C15.5143 6.34147 14.311 5.97646 13.0801 5.97646C11.4295 5.97646 9.84647 6.63216 8.67932 7.79931C7.51216 8.96647 6.85646 10.5495 6.85646 12.2001ZM18.0947 5.72951C18.0947 6.01717 18.18 6.29836 18.3398 6.53753C18.4997 6.77671 18.7268 6.96312 18.9926 7.0732C19.2583 7.18328 19.5507 7.21209 19.8329 7.15597C20.115 7.09985 20.3741 6.96133 20.5775 6.75793C20.781 6.55453 20.9195 6.29538 20.9756 6.01325C21.0317 5.73113 21.0029 5.4387 20.8928 5.17294C20.7827 4.90718 20.5963 4.68004 20.3572 4.52022C20.118 4.36041 19.8368 4.27511 19.5491 4.27511C19.1634 4.27511 18.7935 4.42834 18.5207 4.7011C18.248 4.97385 18.0947 5.34378 18.0947 5.72951ZM8.1836 22.0658C7.41483 22.0571 6.65328 21.9162 5.93231 21.6491C5.40575 21.4538 4.92953 21.1433 4.53851 20.7401C4.13466 20.3497 3.82397 19.8733 3.62951 19.3463C3.36234 18.6254 3.2214 17.8638 3.21289 17.095C3.1538 15.8179 3.14168 15.4285 3.14168 12.197C3.14168 8.96555 3.1538 8.57771 3.21289 7.29905C3.22242 6.53036 3.36333 5.76896 3.62951 5.04776C3.82481 4.5212 4.13538 4.04498 4.53851 3.65396C4.92887 3.25003 5.40528 2.93933 5.93231 2.74496C6.65324 2.47779 7.41481 2.33685 8.1836 2.32834C9.46075 2.26925 9.8501 2.25713 13.0801 2.25713C16.3101 2.25713 16.6994 2.26925 17.9781 2.32834C18.7468 2.33787 19.5082 2.47878 20.2294 2.74496C20.7561 2.93989 21.2324 3.25052 21.6232 3.65396C22.0266 4.04472 22.3372 4.52102 22.5322 5.04776C22.7993 5.76869 22.9403 6.53026 22.9488 7.29905C23.0079 8.57771 23.02 8.96555 23.02 12.197C23.02 15.4285 23.0079 15.8164 22.9488 17.095C22.9396 17.8638 22.7987 18.6252 22.5322 19.3463C22.3304 19.8691 22.0214 20.3438 21.625 20.7399C21.2287 21.136 20.7538 21.4447 20.2309 21.6461C19.51 21.9133 18.7484 22.0542 17.9796 22.0627C16.7024 22.1218 16.3131 22.1339 13.0816 22.1339C9.8501 22.1339 9.46226 22.1218 8.18512 22.0627L8.1836 22.0658ZM8.08058 0.152798C7.07607 0.173167 6.08228 0.363728 5.14148 0.716378C4.33277 1.02092 3.60017 1.49812 2.99473 2.11472C2.37756 2.7197 1.90027 3.45243 1.59638 4.26148C1.24379 5.20229 1.05323 6.19607 1.0328 7.20058C0.973718 8.4959 0.960083 8.90798 0.960083 12.2001C0.960083 15.4922 0.973718 15.9043 1.0328 17.1996C1.0532 18.2041 1.24376 19.1979 1.59638 20.1387C1.90036 20.9477 2.37763 21.6804 2.99473 22.2854C3.60045 22.9017 4.33297 23.3788 5.14148 23.6838C6.08328 24.0366 7.07809 24.2272 8.08361 24.2474C9.37591 24.3049 9.78799 24.3201 13.0801 24.3201C16.3722 24.3201 16.7843 24.3064 18.0796 24.2474C19.0851 24.2273 20.08 24.0367 21.0217 23.6838C21.827 23.3725 22.5583 22.8963 23.1688 22.2858C23.7793 21.6753 24.2555 20.944 24.5668 20.1387C24.9202 19.197 25.1108 18.2021 25.1304 17.1965C25.1849 15.9043 25.2001 15.4922 25.2001 12.2001C25.2001 8.90798 25.1864 8.4959 25.1274 7.20058C25.107 6.19606 24.9164 5.20228 24.5638 4.26148C24.2588 3.45299 23.7817 2.72048 23.1654 2.11472C22.5607 1.49796 21.8286 1.02073 21.0202 0.716378C20.079 0.363334 19.0846 0.172762 18.0796 0.152798C16.7858 0.0952281 16.3722 0.0800781 13.0801 0.0800781C9.78799 0.0800781 9.37591 0.0937131 8.08058 0.152798Z" fill="url(#paint0_radial)"/>
<defs>
<radialGradient id="paint0_radial" cx="0" cy="0" r="1" gradientUnits="userSpaceOnUse" gradientTransform="translate(15.6495 25.5321) scale(24.943)">
<stop offset="0.64" stop-color="#8C3AAA" stop-opacity="0"/>
<stop offset="1" stop-color="#8C3AAA"/>
</radialGradient>
</defs>
</svg>
