<svg width="26" height="25" viewBox="0 0 26 25" fill="none" xmlns="http://www.w3.org/2000/svg">
<path d="M13.0897 24.3201C19.7834 24.3201 25.2097 18.8938 25.2097 12.2001C25.2097 5.50639 19.7834 0.0800781 13.0897 0.0800781C6.39604 0.0800781 0.969727 5.50639 0.969727 12.2001C0.969727 18.8938 6.39604 24.3201 13.0897 24.3201Z" fill="#2DAAE1"/>
<path d="M20.3224 7.40369C19.7447 7.65971 19.1319 7.82771 18.5044 7.90211C19.1661 7.50606 19.6614 6.88316 19.8982 6.14926C19.2764 6.51884 18.5959 6.77914 17.8862 6.91888C17.4515 6.4553 16.8875 6.13313 16.2674 5.99417C15.6472 5.85521 14.9996 5.9059 14.4087 6.13965C13.8177 6.37339 13.3106 6.77937 12.9533 7.30493C12.596 7.83049 12.405 8.45133 12.405 9.08684C12.4047 9.33005 12.4322 9.5725 12.4868 9.8095C11.2269 9.74639 9.99442 9.41906 8.86925 8.84878C7.74408 8.2785 6.75139 7.478 5.95562 6.49923C5.55068 7.19678 5.42664 8.02237 5.60872 8.80812C5.79081 9.59387 6.26534 10.2808 6.93583 10.7291C6.4329 10.7136 5.94096 10.578 5.50111 10.3337V10.3731C5.50098 11.1049 5.7541 11.8142 6.21749 12.3806C6.68087 12.9469 7.32598 13.3355 8.0433 13.4804C7.77124 13.5544 7.49049 13.5916 7.20854 13.5909C7.00826 13.5909 6.8084 13.5721 6.61161 13.5349C6.81423 14.1643 7.20849 14.7148 7.73926 15.1092C8.27003 15.5036 8.91079 15.7223 9.57194 15.7347C8.24193 16.7766 6.5529 17.2485 4.87543 17.0466C6.23735 17.9193 7.80905 18.4093 9.42561 18.4652C11.0422 18.5211 12.644 18.1409 14.0629 17.3644C15.4819 16.5879 16.6657 15.4438 17.4901 14.0521C18.3145 12.6604 18.7491 11.0725 18.7483 9.455C18.7483 9.31764 18.7453 9.18077 18.7392 9.04442C19.3601 8.59575 19.8961 8.04018 20.3224 7.40369Z" fill="white"/>
</svg>
