<svg width="1326" height="80" viewBox="0 0 1326 80" fill="none" xmlns="http://www.w3.org/2000/svg">
<path d="M0 40C0 25.6406 11.6406 14 26 14H1300C1314.36 14 1326 25.6406 1326 40C1326 54.3594 1314.36 66 1300 66H26C11.6406 66 0 54.3594 0 40Z" fill="#EDEDED"/>
<path d="M0 40C0 25.6406 11.6406 14 26 14H106V66H26C11.6406 66 0 54.3594 0 40Z" fill="#3E8ED0"/>
<circle cx="248" cy="40" r="40" fill="#FFC98A"/>
<path d="M253.555 46.9785C254.717 46.9785 255.299 47.4724 255.299 48.4602C255.299 49.4867 254.717 50 253.555 50H243.736C242.554 50 241.963 49.4867 241.963 48.4602C241.963 47.4724 242.554 46.9785 243.736 46.9785H246.757V33.7305L243.968 35.4446C243.697 35.5996 243.455 35.6771 243.242 35.6771C242.835 35.6771 242.486 35.5027 242.196 35.1541C241.925 34.8055 241.789 34.4181 241.789 33.992C241.789 33.4303 242.041 32.9945 242.544 32.6846L247.048 29.8956C247.629 29.5469 248.181 29.3726 248.704 29.3726C249.246 29.3726 249.682 29.5373 250.011 29.8665C250.34 30.1958 250.505 30.6509 250.505 31.232V46.9785H253.555Z" fill="white"/>
<circle cx="478" cy="40" r="40" fill="#3E8ED0"/>
<path d="M483.468 46.9785C484.63 46.9785 485.211 47.4724 485.211 48.4602C485.211 49.4867 484.63 50 483.468 50H472.428C471.925 50 471.528 49.8547 471.237 49.5642C470.947 49.2543 470.801 48.8766 470.801 48.4312C470.801 47.8501 471.024 47.3272 471.469 46.8623L478.093 39.7444C478.907 38.8535 479.498 38.04 479.866 37.304C480.253 36.5486 480.447 35.8029 480.447 35.0669C480.447 34.1566 480.185 33.4594 479.662 32.9752C479.139 32.4909 478.394 32.2488 477.425 32.2488C476.631 32.2488 475.856 32.4038 475.101 32.7137C474.365 33.0042 473.619 33.4109 472.864 33.9339C472.67 34.0695 472.477 34.1857 472.283 34.2825C472.089 34.36 471.896 34.3987 471.702 34.3987C471.373 34.3987 471.082 34.2438 470.83 33.9339C470.598 33.624 470.482 33.256 470.482 32.8299C470.482 32.5394 470.53 32.2876 470.627 32.0745C470.743 31.8615 470.917 31.6581 471.15 31.4644C472.002 30.7865 473 30.2539 474.142 29.8665C475.285 29.4598 476.428 29.2564 477.571 29.2564C479.565 29.2564 481.154 29.76 482.335 30.7672C483.536 31.7743 484.136 33.1301 484.136 34.8345C484.136 36.016 483.885 37.1297 483.381 38.1756C482.877 39.2021 482.025 40.3545 480.824 41.6328L475.798 46.9785H483.468Z" fill="white"/>
<circle cx="708" cy="40" r="40" fill="#3E8ED0"/>
<path d="M710.853 39.4829C712.074 39.7928 713.003 40.3836 713.643 41.2552C714.301 42.1074 714.63 43.1726 714.63 44.4509C714.63 46.2135 713.981 47.6177 712.684 48.6636C711.386 49.7095 709.633 50.2324 707.425 50.2324C706.166 50.2324 704.956 50.0387 703.794 49.6514C702.632 49.264 701.644 48.7217 700.83 48.0244C700.385 47.6371 700.162 47.1819 700.162 46.6589C700.162 46.2328 700.278 45.8745 700.511 45.584C700.763 45.2741 701.053 45.1192 701.382 45.1192C701.576 45.1192 701.75 45.1579 701.905 45.2354C702.06 45.2935 702.273 45.4 702.544 45.5549C703.358 46.0973 704.133 46.5137 704.869 46.8042C705.605 47.0947 706.408 47.24 707.28 47.24C708.558 47.24 709.507 46.9882 710.127 46.4846C710.747 45.9617 711.057 45.1773 711.057 44.1314C711.057 43.1048 710.728 42.3495 710.069 41.8653C709.43 41.3617 708.432 41.1099 707.077 41.1099H705.421C704.975 41.1099 704.627 40.9646 704.375 40.6741C704.142 40.3642 704.026 40.0156 704.026 39.6282C704.026 39.2215 704.142 38.8728 704.375 38.5823C704.627 38.2918 704.975 38.1465 705.421 38.1465H706.583C709.236 38.1465 710.563 37.1491 710.563 35.1541C710.563 34.2244 710.282 33.5078 709.72 33.0042C709.159 32.5006 708.384 32.2488 707.396 32.2488C705.982 32.2488 704.472 32.8105 702.864 33.9339C702.593 34.0888 702.38 34.2051 702.225 34.2825C702.07 34.3406 701.896 34.3697 701.702 34.3697C701.373 34.3697 701.082 34.2244 700.83 33.9339C700.598 33.624 700.482 33.256 700.482 32.8299C700.482 32.5394 700.53 32.2973 700.627 32.1036C700.743 31.8905 700.917 31.6775 701.15 31.4644C701.963 30.7865 702.932 30.2539 704.055 29.8665C705.198 29.4598 706.36 29.2564 707.541 29.2564C709.556 29.2564 711.154 29.7503 712.335 30.7381C713.536 31.7259 714.136 33.0429 714.136 34.6893C714.117 35.8126 713.817 36.8004 713.236 37.6526C712.674 38.4855 711.88 39.0956 710.853 39.4829Z" fill="white"/>
<circle cx="938" cy="40" r="40" fill="#3E8ED0"/>
<path d="M944.253 43.0855C944.834 43.0855 945.269 43.2114 945.56 43.4632C945.851 43.7149 945.996 44.0733 945.996 44.5381C945.996 45.5065 945.415 45.9907 944.253 45.9907H942.771V48.2859C942.771 48.8863 942.597 49.3512 942.248 49.6804C941.919 50.0097 941.483 50.1743 940.941 50.1743C940.398 50.1743 939.953 50.0097 939.604 49.6804C939.275 49.3512 939.11 48.8863 939.11 48.2859V45.9907H931.499C930.976 45.9907 930.569 45.8455 930.278 45.5549C929.988 45.2451 929.843 44.8674 929.843 44.4219C929.843 43.9571 929.997 43.5116 930.307 43.0855L939.285 30.1861C939.478 29.9149 939.72 29.7116 940.011 29.576C940.301 29.4211 940.602 29.3436 940.912 29.3436C941.415 29.3436 941.851 29.5082 942.219 29.8375C942.587 30.1667 942.771 30.6316 942.771 31.232V43.0855H944.253ZM933.707 43.0855H939.11V35.2703L933.707 43.0855Z" fill="white"/>
<circle cx="1168" cy="40" r="40" fill="#3E8ED0"/>
<path d="M1168.79 36.8973C1170.07 36.8973 1171.19 37.1781 1172.16 37.7398C1173.15 38.2821 1173.91 39.0472 1174.46 40.0349C1175 41.0227 1175.27 42.1558 1175.27 43.4341C1175.27 44.7705 1174.96 45.952 1174.34 46.9785C1173.74 48.0051 1172.88 48.8088 1171.75 49.3899C1170.65 49.9516 1169.37 50.2324 1167.92 50.2324C1166.72 50.2324 1165.54 50.0387 1164.37 49.6514C1163.23 49.2446 1162.25 48.7023 1161.44 48.0244C1160.99 47.6371 1160.77 47.1819 1160.77 46.6589C1160.77 46.2328 1160.89 45.8745 1161.12 45.584C1161.37 45.2741 1161.66 45.1192 1161.99 45.1192C1162.19 45.1192 1162.37 45.1579 1162.54 45.2354C1162.72 45.2935 1162.92 45.4 1163.15 45.5549C1163.93 46.0973 1164.68 46.5137 1165.42 46.8042C1166.16 47.0947 1166.94 47.24 1167.77 47.24C1169.05 47.24 1170.03 46.9204 1170.71 46.2813C1171.39 45.6421 1171.73 44.7318 1171.73 43.5503C1171.73 42.4076 1171.38 41.5069 1170.68 40.8484C1170 40.1705 1169.06 39.8316 1167.86 39.8316C1167.11 39.8316 1166.43 39.9381 1165.83 40.1512C1165.25 40.3642 1164.65 40.7225 1164.03 41.2261C1163.66 41.4779 1163.28 41.6038 1162.89 41.6038C1162.51 41.6038 1162.18 41.4876 1161.91 41.2552C1161.63 41.0227 1161.5 40.7128 1161.5 40.3255V31.2611C1161.5 30.7187 1161.65 30.2926 1161.96 29.9827C1162.27 29.6728 1162.71 29.5179 1163.27 29.5179H1172.95C1174.11 29.5179 1174.69 30.0021 1174.69 30.9705C1174.69 31.9389 1174.11 32.4232 1172.95 32.4232H1165.16V37.9432C1166.15 37.2459 1167.36 36.8973 1168.79 36.8973Z" fill="white"/>
</svg>
