<svg width="478" height="56" viewBox="0 0 478 56" fill="none" xmlns="http://www.w3.org/2000/svg">
<path d="M83.56 24.192C82.344 24.192 81.184 24.024 80.08 23.688C78.992 23.352 78.12 22.888 77.464 22.296C77.16 22.04 77.008 21.712 77.008 21.312C77.008 21.024 77.088 20.784 77.248 20.592C77.408 20.384 77.6 20.28 77.824 20.28C78.048 20.28 78.32 20.384 78.64 20.592C80.064 21.648 81.688 22.176 83.512 22.176C84.792 22.176 85.776 21.936 86.464 21.456C87.152 20.976 87.496 20.288 87.496 19.392C87.496 18.688 87.176 18.16 86.536 17.808C85.896 17.456 84.872 17.12 83.464 16.8C82.12 16.512 81.016 16.184 80.152 15.816C79.288 15.448 78.608 14.952 78.112 14.328C77.632 13.688 77.392 12.88 77.392 11.904C77.392 10.928 77.656 10.064 78.184 9.312C78.728 8.544 79.48 7.952 80.44 7.536C81.4 7.104 82.496 6.888 83.728 6.888C84.864 6.888 85.912 7.048 86.872 7.368C87.832 7.688 88.648 8.16 89.32 8.784C89.64 9.056 89.8 9.384 89.8 9.768C89.8 10.04 89.712 10.28 89.536 10.488C89.376 10.696 89.184 10.8 88.96 10.8C88.752 10.8 88.488 10.696 88.168 10.488C87.432 9.928 86.736 9.528 86.08 9.288C85.44 9.032 84.664 8.904 83.752 8.904C82.52 8.904 81.56 9.16 80.872 9.672C80.184 10.168 79.84 10.864 79.84 11.76C79.84 12.528 80.144 13.112 80.752 13.512C81.36 13.896 82.336 14.248 83.68 14.568C85.088 14.888 86.224 15.224 87.088 15.576C87.968 15.912 88.664 16.384 89.176 16.992C89.704 17.584 89.968 18.352 89.968 19.296C89.968 20.256 89.696 21.112 89.152 21.864C88.624 22.6 87.872 23.176 86.896 23.592C85.936 23.992 84.824 24.192 83.56 24.192ZM101.799 12.048C102.167 12.048 102.455 12.152 102.663 12.36C102.887 12.568 102.999 12.856 102.999 13.224V22.992C102.999 23.328 102.887 23.6 102.663 23.808C102.439 24.016 102.143 24.12 101.775 24.12C101.439 24.12 101.167 24.024 100.959 23.832C100.751 23.624 100.647 23.352 100.647 23.016V22.104C100.279 22.776 99.7669 23.288 99.1109 23.64C98.4709 23.992 97.7509 24.168 96.9509 24.168C94.1029 24.168 92.6789 22.6 92.6789 19.464V13.224C92.6789 12.856 92.7829 12.568 92.9909 12.36C93.2149 12.152 93.5189 12.048 93.9029 12.048C94.2709 12.048 94.5589 12.152 94.7669 12.36C94.9909 12.568 95.1029 12.856 95.1029 13.224V19.44C95.1029 20.384 95.2949 21.08 95.6789 21.528C96.0629 21.976 96.6549 22.2 97.4549 22.2C98.3989 22.2 99.1509 21.896 99.7109 21.288C100.287 20.68 100.575 19.872 100.575 18.864V13.224C100.575 12.872 100.687 12.592 100.911 12.384C101.135 12.16 101.431 12.048 101.799 12.048ZM116.087 12.048C116.455 12.048 116.743 12.16 116.951 12.384C117.175 12.592 117.287 12.872 117.287 13.224V23.064C117.287 24.856 116.807 26.208 115.847 27.12C114.903 28.032 113.503 28.488 111.647 28.488C109.919 28.488 108.479 28.16 107.327 27.504C106.735 27.168 106.439 26.768 106.439 26.304C106.439 26.032 106.511 25.808 106.655 25.632C106.815 25.456 107.007 25.368 107.231 25.368C107.439 25.368 107.767 25.488 108.215 25.728C108.791 26 109.327 26.208 109.823 26.352C110.319 26.512 110.911 26.592 111.599 26.592C113.807 26.592 114.911 25.48 114.911 23.256V21.408C114.575 22.112 114.063 22.664 113.375 23.064C112.687 23.448 111.887 23.64 110.975 23.64C109.951 23.64 109.039 23.4 108.239 22.92C107.439 22.44 106.815 21.76 106.367 20.88C105.935 20 105.719 18.984 105.719 17.832C105.719 16.68 105.943 15.664 106.391 14.784C106.839 13.904 107.455 13.224 108.239 12.744C109.039 12.248 109.951 12 110.975 12C111.871 12 112.655 12.192 113.327 12.576C114.015 12.96 114.535 13.504 114.887 14.208V13.2C114.887 12.848 114.991 12.568 115.199 12.36C115.423 12.152 115.719 12.048 116.087 12.048ZM111.551 21.72C112.591 21.72 113.407 21.376 113.999 20.688C114.591 20 114.887 19.048 114.887 17.832C114.887 16.632 114.591 15.688 113.999 15C113.423 14.296 112.607 13.944 111.551 13.944C110.495 13.944 109.663 14.288 109.055 14.976C108.463 15.664 108.167 16.616 108.167 17.832C108.167 19.048 108.471 20 109.079 20.688C109.687 21.376 110.511 21.72 111.551 21.72ZM129.832 21.048C130.056 21.048 130.24 21.136 130.384 21.312C130.528 21.488 130.6 21.712 130.6 21.984C130.6 22.448 130.312 22.84 129.736 23.16C129.176 23.48 128.56 23.728 127.888 23.904C127.232 24.08 126.6 24.168 125.992 24.168C124.136 24.168 122.672 23.632 121.6 22.56C120.528 21.472 119.992 19.992 119.992 18.12C119.992 16.92 120.224 15.856 120.688 14.928C121.168 14 121.832 13.28 122.68 12.768C123.544 12.256 124.52 12 125.608 12C127.176 12 128.416 12.504 129.328 13.512C130.24 14.52 130.696 15.88 130.696 17.592C130.696 18.232 130.408 18.552 129.832 18.552H122.416C122.576 21.032 123.768 22.272 125.992 22.272C126.584 22.272 127.096 22.192 127.528 22.032C127.96 21.872 128.416 21.664 128.896 21.408C128.944 21.376 129.072 21.312 129.28 21.216C129.504 21.104 129.688 21.048 129.832 21.048ZM125.656 13.776C124.728 13.776 123.984 14.072 123.424 14.664C122.864 15.256 122.528 16.088 122.416 17.16H128.608C128.56 16.072 128.28 15.24 127.768 14.664C127.272 14.072 126.568 13.776 125.656 13.776ZM137.448 24.168C135.816 24.168 134.48 23.832 133.44 23.16C133.152 22.984 132.944 22.8 132.816 22.608C132.704 22.416 132.648 22.2 132.648 21.96C132.648 21.704 132.72 21.488 132.864 21.312C133.008 21.136 133.192 21.048 133.416 21.048C133.624 21.048 133.952 21.176 134.4 21.432C134.88 21.688 135.344 21.896 135.792 22.056C136.256 22.216 136.832 22.296 137.52 22.296C138.288 22.296 138.888 22.16 139.32 21.888C139.752 21.616 139.968 21.232 139.968 20.736C139.968 20.416 139.88 20.16 139.704 19.968C139.544 19.776 139.256 19.608 138.84 19.464C138.424 19.304 137.808 19.136 136.992 18.96C135.584 18.656 134.568 18.248 133.944 17.736C133.336 17.208 133.032 16.496 133.032 15.6C133.032 14.912 133.232 14.296 133.632 13.752C134.032 13.192 134.584 12.76 135.288 12.456C135.992 12.152 136.792 12 137.688 12C138.328 12 138.952 12.088 139.56 12.264C140.168 12.424 140.704 12.664 141.168 12.984C141.696 13.336 141.96 13.744 141.96 14.208C141.96 14.464 141.88 14.68 141.72 14.856C141.576 15.032 141.4 15.12 141.192 15.12C141.048 15.12 140.904 15.088 140.76 15.024C140.616 14.96 140.424 14.856 140.184 14.712C139.752 14.456 139.344 14.256 138.96 14.112C138.592 13.968 138.128 13.896 137.568 13.896C136.896 13.896 136.352 14.04 135.936 14.328C135.536 14.616 135.336 15.008 135.336 15.504C135.336 15.952 135.52 16.304 135.888 16.56C136.272 16.8 136.984 17.032 138.023 17.256C139.096 17.48 139.936 17.736 140.544 18.024C141.152 18.312 141.584 18.672 141.84 19.104C142.112 19.52 142.248 20.056 142.248 20.712C142.248 21.752 141.808 22.592 140.928 23.232C140.064 23.856 138.904 24.168 137.448 24.168ZM150.564 22.272C150.916 22.304 151.164 22.4 151.308 22.56C151.468 22.704 151.548 22.912 151.548 23.184C151.548 23.504 151.42 23.752 151.164 23.928C150.924 24.088 150.564 24.152 150.084 24.12L149.436 24.072C148.14 23.976 147.172 23.584 146.532 22.896C145.892 22.192 145.572 21.16 145.572 19.8V14.16H144.132C143.428 14.16 143.076 13.848 143.076 13.224C143.076 12.936 143.164 12.712 143.34 12.552C143.532 12.376 143.796 12.288 144.132 12.288H145.572V9.816C145.572 9.448 145.676 9.16 145.884 8.952C146.108 8.744 146.404 8.64 146.772 8.64C147.14 8.64 147.436 8.744 147.66 8.952C147.884 9.16 147.996 9.448 147.996 9.816V12.288H150.372C150.708 12.288 150.964 12.376 151.14 12.552C151.332 12.712 151.428 12.936 151.428 13.224C151.428 13.528 151.332 13.76 151.14 13.92C150.964 14.08 150.708 14.16 150.372 14.16H147.996V19.968C147.996 20.72 148.148 21.272 148.452 21.624C148.772 21.976 149.252 22.176 149.892 22.224L150.564 22.272ZM158.377 24.168C157.225 24.168 156.209 23.92 155.329 23.424C154.465 22.928 153.793 22.224 153.313 21.312C152.849 20.384 152.617 19.312 152.617 18.096C152.617 16.864 152.849 15.792 153.313 14.88C153.793 13.952 154.465 13.24 155.329 12.744C156.209 12.248 157.225 12 158.377 12C159.529 12 160.537 12.248 161.401 12.744C162.281 13.24 162.953 13.952 163.417 14.88C163.897 15.792 164.137 16.864 164.137 18.096C164.137 19.312 163.897 20.384 163.417 21.312C162.953 22.224 162.281 22.928 161.401 23.424C160.537 23.92 159.529 24.168 158.377 24.168ZM158.377 22.248C159.449 22.248 160.265 21.896 160.825 21.192C161.401 20.488 161.689 19.456 161.689 18.096C161.689 16.752 161.401 15.728 160.825 15.024C160.249 14.304 159.433 13.944 158.377 13.944C157.321 13.944 156.505 14.304 155.929 15.024C155.353 15.728 155.065 16.752 155.065 18.096C155.065 19.456 155.345 20.488 155.905 21.192C156.481 21.896 157.305 22.248 158.377 22.248ZM160.105 9.888C159.801 9.888 159.505 9.824 159.217 9.696C158.929 9.552 158.585 9.352 158.185 9.096C157.865 8.888 157.593 8.736 157.369 8.64C157.161 8.528 156.961 8.472 156.769 8.472C156.497 8.472 156.281 8.544 156.121 8.688C155.977 8.816 155.833 9 155.689 9.24C155.577 9.416 155.473 9.552 155.377 9.648C155.297 9.744 155.193 9.792 155.065 9.792C154.889 9.792 154.745 9.728 154.633 9.6C154.537 9.472 154.489 9.304 154.489 9.096C154.489 8.792 154.577 8.456 154.753 8.088C154.945 7.704 155.201 7.384 155.521 7.128C155.857 6.856 156.233 6.72 156.649 6.72C156.953 6.72 157.249 6.792 157.537 6.936C157.841 7.08 158.185 7.28 158.569 7.536C158.969 7.776 159.257 7.944 159.433 8.04C159.625 8.12 159.809 8.16 159.985 8.16C160.257 8.16 160.465 8.096 160.609 7.968C160.769 7.824 160.921 7.632 161.065 7.392C161.177 7.216 161.273 7.08 161.353 6.984C161.449 6.888 161.561 6.84 161.689 6.84C161.865 6.84 162.001 6.904 162.097 7.032C162.209 7.16 162.265 7.328 162.265 7.536C162.265 7.824 162.169 8.16 161.977 8.544C161.801 8.912 161.545 9.232 161.209 9.504C160.889 9.76 160.521 9.888 160.105 9.888ZM176.004 21.048C176.228 21.048 176.412 21.136 176.556 21.312C176.7 21.488 176.772 21.712 176.772 21.984C176.772 22.448 176.484 22.84 175.908 23.16C175.348 23.48 174.732 23.728 174.06 23.904C173.404 24.08 172.772 24.168 172.164 24.168C170.308 24.168 168.844 23.632 167.772 22.56C166.7 21.472 166.164 19.992 166.164 18.12C166.164 16.92 166.396 15.856 166.86 14.928C167.34 14 168.004 13.28 168.852 12.768C169.716 12.256 170.692 12 171.78 12C173.348 12 174.588 12.504 175.5 13.512C176.412 14.52 176.868 15.88 176.868 17.592C176.868 18.232 176.58 18.552 176.004 18.552H168.588C168.748 21.032 169.94 22.272 172.164 22.272C172.756 22.272 173.268 22.192 173.7 22.032C174.132 21.872 174.588 21.664 175.068 21.408C175.116 21.376 175.244 21.312 175.452 21.216C175.676 21.104 175.86 21.048 176.004 21.048ZM171.828 13.776C170.9 13.776 170.156 14.072 169.596 14.664C169.036 15.256 168.7 16.088 168.588 17.16H174.78C174.732 16.072 174.452 15.24 173.94 14.664C173.444 14.072 172.74 13.776 171.828 13.776ZM183.619 24.168C181.987 24.168 180.651 23.832 179.611 23.16C179.323 22.984 179.115 22.8 178.987 22.608C178.875 22.416 178.819 22.2 178.819 21.96C178.819 21.704 178.891 21.488 179.035 21.312C179.179 21.136 179.363 21.048 179.587 21.048C179.795 21.048 180.123 21.176 180.571 21.432C181.051 21.688 181.515 21.896 181.963 22.056C182.427 22.216 183.003 22.296 183.691 22.296C184.459 22.296 185.059 22.16 185.491 21.888C185.923 21.616 186.139 21.232 186.139 20.736C186.139 20.416 186.051 20.16 185.875 19.968C185.715 19.776 185.427 19.608 185.011 19.464C184.595 19.304 183.979 19.136 183.163 18.96C181.755 18.656 180.739 18.248 180.115 17.736C179.507 17.208 179.203 16.496 179.203 15.6C179.203 14.912 179.403 14.296 179.803 13.752C180.203 13.192 180.755 12.76 181.459 12.456C182.163 12.152 182.963 12 183.859 12C184.499 12 185.123 12.088 185.731 12.264C186.339 12.424 186.875 12.664 187.339 12.984C187.867 13.336 188.131 13.744 188.131 14.208C188.131 14.464 188.051 14.68 187.891 14.856C187.747 15.032 187.571 15.12 187.363 15.12C187.219 15.12 187.075 15.088 186.931 15.024C186.787 14.96 186.595 14.856 186.355 14.712C185.923 14.456 185.515 14.256 185.131 14.112C184.763 13.968 184.299 13.896 183.739 13.896C183.067 13.896 182.523 14.04 182.107 14.328C181.707 14.616 181.507 15.008 181.507 15.504C181.507 15.952 181.691 16.304 182.059 16.56C182.443 16.8 183.155 17.032 184.195 17.256C185.267 17.48 186.107 17.736 186.715 18.024C187.323 18.312 187.755 18.672 188.011 19.104C188.283 19.52 188.419 20.056 188.419 20.712C188.419 21.752 187.979 22.592 187.099 23.232C186.235 23.856 185.075 24.168 183.619 24.168ZM207.022 6.96C207.39 6.96 207.686 7.064 207.91 7.272C208.134 7.48 208.246 7.76 208.246 8.112V22.944C208.246 23.312 208.134 23.6 207.91 23.808C207.702 24.016 207.414 24.12 207.046 24.12C206.678 24.12 206.382 24.016 206.158 23.808C205.95 23.6 205.846 23.312 205.846 22.944V21.984C205.494 22.688 204.982 23.232 204.31 23.616C203.638 23.984 202.862 24.168 201.982 24.168C200.974 24.168 200.07 23.912 199.27 23.4C198.486 22.888 197.87 22.168 197.422 21.24C196.99 20.312 196.774 19.248 196.774 18.048C196.774 16.832 196.99 15.768 197.422 14.856C197.87 13.944 198.486 13.24 199.27 12.744C200.054 12.248 200.958 12 201.982 12C202.862 12 203.63 12.192 204.286 12.576C204.958 12.944 205.47 13.472 205.822 14.16V8.064C205.822 7.728 205.926 7.464 206.134 7.272C206.358 7.064 206.654 6.96 207.022 6.96ZM202.558 22.248C203.598 22.248 204.406 21.888 204.982 21.168C205.558 20.448 205.846 19.424 205.846 18.096C205.846 16.768 205.558 15.744 204.982 15.024C204.422 14.304 203.614 13.944 202.558 13.944C201.502 13.944 200.678 14.304 200.086 15.024C199.51 15.728 199.222 16.736 199.222 18.048C199.222 19.36 199.518 20.392 200.11 21.144C200.702 21.88 201.518 22.248 202.558 22.248ZM220.793 21.048C221.017 21.048 221.201 21.136 221.345 21.312C221.489 21.488 221.561 21.712 221.561 21.984C221.561 22.448 221.273 22.84 220.697 23.16C220.137 23.48 219.521 23.728 218.849 23.904C218.193 24.08 217.561 24.168 216.953 24.168C215.097 24.168 213.633 23.632 212.561 22.56C211.489 21.472 210.953 19.992 210.953 18.12C210.953 16.92 211.185 15.856 211.649 14.928C212.129 14 212.793 13.28 213.641 12.768C214.505 12.256 215.481 12 216.569 12C218.137 12 219.377 12.504 220.289 13.512C221.201 14.52 221.657 15.88 221.657 17.592C221.657 18.232 221.369 18.552 220.793 18.552H213.377C213.537 21.032 214.729 22.272 216.953 22.272C217.545 22.272 218.057 22.192 218.489 22.032C218.921 21.872 219.377 21.664 219.857 21.408C219.905 21.376 220.033 21.312 220.241 21.216C220.465 21.104 220.649 21.048 220.793 21.048ZM216.617 13.776C215.689 13.776 214.945 14.072 214.385 14.664C213.825 15.256 213.489 16.088 213.377 17.16H219.569C219.521 16.072 219.241 15.24 218.729 14.664C218.233 14.072 217.529 13.776 216.617 13.776ZM240.233 6.96C240.601 6.96 240.897 7.064 241.121 7.272C241.345 7.48 241.457 7.76 241.457 8.112V22.944C241.457 23.312 241.345 23.6 241.121 23.808C240.913 24.016 240.625 24.12 240.257 24.12C239.889 24.12 239.593 24.016 239.369 23.808C239.161 23.6 239.057 23.312 239.057 22.944V21.984C238.705 22.688 238.193 23.232 237.521 23.616C236.849 23.984 236.073 24.168 235.193 24.168C234.185 24.168 233.281 23.912 232.481 23.4C231.697 22.888 231.081 22.168 230.633 21.24C230.201 20.312 229.985 19.248 229.985 18.048C229.985 16.832 230.201 15.768 230.633 14.856C231.081 13.944 231.697 13.24 232.481 12.744C233.265 12.248 234.169 12 235.193 12C236.073 12 236.841 12.192 237.497 12.576C238.169 12.944 238.681 13.472 239.033 14.16V8.064C239.033 7.728 239.137 7.464 239.345 7.272C239.569 7.064 239.865 6.96 240.233 6.96ZM235.769 22.248C236.809 22.248 237.617 21.888 238.193 21.168C238.769 20.448 239.057 19.424 239.057 18.096C239.057 16.768 238.769 15.744 238.193 15.024C237.633 14.304 236.825 13.944 235.769 13.944C234.713 13.944 233.889 14.304 233.297 15.024C232.721 15.728 232.433 16.736 232.433 18.048C232.433 19.36 232.729 20.392 233.321 21.144C233.913 21.88 234.729 22.248 235.769 22.248ZM254.004 21.048C254.228 21.048 254.412 21.136 254.556 21.312C254.7 21.488 254.772 21.712 254.772 21.984C254.772 22.448 254.484 22.84 253.908 23.16C253.348 23.48 252.732 23.728 252.06 23.904C251.404 24.08 250.772 24.168 250.164 24.168C248.308 24.168 246.844 23.632 245.772 22.56C244.7 21.472 244.164 19.992 244.164 18.12C244.164 16.92 244.396 15.856 244.86 14.928C245.34 14 246.004 13.28 246.852 12.768C247.716 12.256 248.692 12 249.78 12C251.348 12 252.588 12.504 253.5 13.512C254.412 14.52 254.868 15.88 254.868 17.592C254.868 18.232 254.58 18.552 254.004 18.552H246.588C246.748 21.032 247.94 22.272 250.164 22.272C250.756 22.272 251.268 22.192 251.7 22.032C252.132 21.872 252.588 21.664 253.068 21.408C253.116 21.376 253.244 21.312 253.452 21.216C253.676 21.104 253.86 21.048 254.004 21.048ZM249.828 13.776C248.9 13.776 248.156 14.072 247.596 14.664C247.036 15.256 246.7 16.088 246.588 17.16H252.78C252.732 16.072 252.452 15.24 251.94 14.664C251.444 14.072 250.74 13.776 249.828 13.776ZM261.619 24.168C259.987 24.168 258.651 23.832 257.611 23.16C257.323 22.984 257.115 22.8 256.987 22.608C256.875 22.416 256.819 22.2 256.819 21.96C256.819 21.704 256.891 21.488 257.035 21.312C257.179 21.136 257.363 21.048 257.587 21.048C257.795 21.048 258.123 21.176 258.571 21.432C259.051 21.688 259.515 21.896 259.963 22.056C260.427 22.216 261.003 22.296 261.691 22.296C262.459 22.296 263.059 22.16 263.491 21.888C263.923 21.616 264.139 21.232 264.139 20.736C264.139 20.416 264.051 20.16 263.875 19.968C263.715 19.776 263.427 19.608 263.011 19.464C262.595 19.304 261.979 19.136 261.163 18.96C259.755 18.656 258.739 18.248 258.115 17.736C257.507 17.208 257.203 16.496 257.203 15.6C257.203 14.912 257.403 14.296 257.803 13.752C258.203 13.192 258.755 12.76 259.459 12.456C260.163 12.152 260.963 12 261.859 12C262.499 12 263.123 12.088 263.731 12.264C264.339 12.424 264.875 12.664 265.339 12.984C265.867 13.336 266.131 13.744 266.131 14.208C266.131 14.464 266.051 14.68 265.891 14.856C265.747 15.032 265.571 15.12 265.363 15.12C265.219 15.12 265.075 15.088 264.931 15.024C264.787 14.96 264.595 14.856 264.355 14.712C263.923 14.456 263.515 14.256 263.131 14.112C262.763 13.968 262.299 13.896 261.739 13.896C261.067 13.896 260.523 14.04 260.107 14.328C259.707 14.616 259.507 15.008 259.507 15.504C259.507 15.952 259.691 16.304 260.059 16.56C260.443 16.8 261.155 17.032 262.195 17.256C263.267 17.48 264.107 17.736 264.715 18.024C265.323 18.312 265.755 18.672 266.011 19.104C266.283 19.52 266.419 20.056 266.419 20.712C266.419 21.752 265.979 22.592 265.099 23.232C264.235 23.856 263.075 24.168 261.619 24.168ZM274.736 22.272C275.088 22.304 275.336 22.4 275.48 22.56C275.64 22.704 275.72 22.912 275.72 23.184C275.72 23.504 275.592 23.752 275.336 23.928C275.096 24.088 274.736 24.152 274.256 24.12L273.608 24.072C272.312 23.976 271.344 23.584 270.704 22.896C270.064 22.192 269.744 21.16 269.744 19.8V14.16H268.304C267.6 14.16 267.248 13.848 267.248 13.224C267.248 12.936 267.336 12.712 267.512 12.552C267.704 12.376 267.968 12.288 268.304 12.288H269.744V9.816C269.744 9.448 269.848 9.16 270.056 8.952C270.28 8.744 270.576 8.64 270.944 8.64C271.312 8.64 271.608 8.744 271.832 8.952C272.056 9.16 272.168 9.448 272.168 9.816V12.288H274.544C274.88 12.288 275.136 12.376 275.312 12.552C275.504 12.712 275.6 12.936 275.6 13.224C275.6 13.528 275.504 13.76 275.312 13.92C275.136 14.08 274.88 14.16 274.544 14.16H272.168V19.968C272.168 20.72 272.32 21.272 272.624 21.624C272.944 21.976 273.424 22.176 274.064 22.224L274.736 22.272ZM278.685 24.12C278.333 24.12 278.037 24.024 277.797 23.832C277.573 23.64 277.461 23.352 277.461 22.968V13.224C277.461 12.84 277.573 12.552 277.797 12.36C278.037 12.152 278.333 12.048 278.685 12.048C279.037 12.048 279.325 12.152 279.549 12.36C279.773 12.552 279.885 12.84 279.885 13.224V22.968C279.885 23.352 279.773 23.64 279.549 23.832C279.325 24.024 279.037 24.12 278.685 24.12ZM278.685 9.696C278.221 9.696 277.853 9.568 277.581 9.312C277.309 9.056 277.173 8.72 277.173 8.304C277.173 7.888 277.309 7.56 277.581 7.32C277.853 7.064 278.221 6.936 278.685 6.936C279.133 6.936 279.493 7.064 279.765 7.32C280.053 7.56 280.197 7.888 280.197 8.304C280.197 8.72 280.061 9.056 279.789 9.312C279.517 9.568 279.149 9.696 278.685 9.696ZM289.586 12C292.386 12 293.786 13.576 293.786 16.728V22.968C293.786 23.336 293.674 23.624 293.45 23.832C293.242 24.024 292.946 24.12 292.562 24.12C292.194 24.12 291.898 24.016 291.674 23.808C291.466 23.6 291.362 23.32 291.362 22.968V16.848C291.362 15.856 291.162 15.128 290.762 14.664C290.378 14.2 289.77 13.968 288.938 13.968C287.962 13.968 287.178 14.272 286.586 14.88C285.994 15.488 285.698 16.304 285.698 17.328V22.968C285.698 23.32 285.586 23.6 285.362 23.808C285.154 24.016 284.866 24.12 284.498 24.12C284.13 24.12 283.834 24.016 283.61 23.808C283.386 23.6 283.274 23.32 283.274 22.968V13.2C283.274 12.864 283.386 12.592 283.61 12.384C283.85 12.16 284.146 12.048 284.498 12.048C284.85 12.048 285.13 12.152 285.338 12.36C285.546 12.568 285.65 12.84 285.65 13.176V14.16C286.034 13.456 286.57 12.92 287.258 12.552C287.946 12.184 288.722 12 289.586 12ZM302.19 24.168C301.038 24.168 300.022 23.92 299.142 23.424C298.278 22.928 297.606 22.224 297.126 21.312C296.662 20.384 296.43 19.312 296.43 18.096C296.43 16.864 296.662 15.792 297.126 14.88C297.606 13.952 298.278 13.24 299.142 12.744C300.022 12.248 301.038 12 302.19 12C303.342 12 304.35 12.248 305.214 12.744C306.094 13.24 306.766 13.952 307.23 14.88C307.71 15.792 307.95 16.864 307.95 18.096C307.95 19.312 307.71 20.384 307.23 21.312C306.766 22.224 306.094 22.928 305.214 23.424C304.35 23.92 303.342 24.168 302.19 24.168ZM302.19 22.248C303.262 22.248 304.078 21.896 304.638 21.192C305.214 20.488 305.502 19.456 305.502 18.096C305.502 16.752 305.214 15.728 304.638 15.024C304.062 14.304 303.246 13.944 302.19 13.944C301.134 13.944 300.318 14.304 299.742 15.024C299.166 15.728 298.878 16.752 298.878 18.096C298.878 19.456 299.158 20.488 299.718 21.192C300.294 21.896 301.118 22.248 302.19 22.248ZM314.729 24.168C313.097 24.168 311.761 23.832 310.721 23.16C310.433 22.984 310.225 22.8 310.097 22.608C309.985 22.416 309.929 22.2 309.929 21.96C309.929 21.704 310.001 21.488 310.145 21.312C310.289 21.136 310.473 21.048 310.697 21.048C310.905 21.048 311.233 21.176 311.681 21.432C312.161 21.688 312.625 21.896 313.073 22.056C313.537 22.216 314.113 22.296 314.801 22.296C315.569 22.296 316.169 22.16 316.601 21.888C317.033 21.616 317.249 21.232 317.249 20.736C317.249 20.416 317.161 20.16 316.985 19.968C316.825 19.776 316.537 19.608 316.121 19.464C315.705 19.304 315.089 19.136 314.273 18.96C312.865 18.656 311.849 18.248 311.225 17.736C310.617 17.208 310.313 16.496 310.313 15.6C310.313 14.912 310.513 14.296 310.913 13.752C311.313 13.192 311.865 12.76 312.569 12.456C313.273 12.152 314.073 12 314.969 12C315.609 12 316.233 12.088 316.841 12.264C317.449 12.424 317.985 12.664 318.449 12.984C318.977 13.336 319.241 13.744 319.241 14.208C319.241 14.464 319.161 14.68 319.001 14.856C318.857 15.032 318.681 15.12 318.473 15.12C318.329 15.12 318.185 15.088 318.041 15.024C317.897 14.96 317.705 14.856 317.465 14.712C317.033 14.456 316.625 14.256 316.241 14.112C315.873 13.968 315.409 13.896 314.849 13.896C314.177 13.896 313.633 14.04 313.217 14.328C312.817 14.616 312.617 15.008 312.617 15.504C312.617 15.952 312.801 16.304 313.169 16.56C313.553 16.8 314.265 17.032 315.305 17.256C316.377 17.48 317.217 17.736 317.825 18.024C318.433 18.312 318.865 18.672 319.121 19.104C319.393 19.52 319.529 20.056 319.529 20.712C319.529 21.752 319.089 22.592 318.209 23.232C317.345 23.856 316.185 24.168 314.729 24.168ZM334.843 12C335.851 12 336.747 12.256 337.531 12.768C338.331 13.28 338.947 14 339.379 14.928C339.827 15.856 340.051 16.928 340.051 18.144C340.051 19.344 339.835 20.4 339.403 21.312C338.971 22.224 338.355 22.928 337.555 23.424C336.771 23.92 335.867 24.168 334.843 24.168C333.963 24.168 333.187 23.984 332.515 23.616C331.843 23.232 331.331 22.688 330.979 21.984V27.336C330.979 27.672 330.867 27.936 330.643 28.128C330.435 28.336 330.155 28.44 329.803 28.44C329.435 28.44 329.131 28.336 328.891 28.128C328.667 27.92 328.555 27.64 328.555 27.288V13.224C328.555 12.872 328.667 12.592 328.891 12.384C329.115 12.16 329.411 12.048 329.779 12.048C330.131 12.048 330.419 12.16 330.643 12.384C330.867 12.592 330.979 12.872 330.979 13.224V14.208C331.331 13.504 331.843 12.96 332.515 12.576C333.187 12.192 333.963 12 334.843 12ZM334.267 22.248C335.323 22.248 336.139 21.896 336.715 21.192C337.291 20.472 337.579 19.456 337.579 18.144C337.579 16.816 337.283 15.784 336.691 15.048C336.115 14.312 335.307 13.944 334.267 13.944C333.211 13.944 332.395 14.304 331.819 15.024C331.259 15.744 330.979 16.768 330.979 18.096C330.979 19.424 331.259 20.448 331.819 21.168C332.395 21.888 333.211 22.248 334.267 22.248ZM347.655 12C349.207 12 350.359 12.392 351.111 13.176C351.879 13.96 352.263 15.152 352.263 16.752V22.968C352.263 23.336 352.159 23.624 351.951 23.832C351.743 24.024 351.455 24.12 351.087 24.12C350.735 24.12 350.455 24.016 350.247 23.808C350.039 23.6 349.935 23.32 349.935 22.968V22.08C349.631 22.752 349.175 23.272 348.567 23.64C347.975 23.992 347.279 24.168 346.479 24.168C345.711 24.168 345.007 24.016 344.367 23.712C343.743 23.392 343.247 22.96 342.879 22.416C342.511 21.872 342.327 21.256 342.327 20.568C342.311 19.704 342.527 19.032 342.975 18.552C343.423 18.056 344.151 17.704 345.159 17.496C346.167 17.272 347.567 17.16 349.359 17.16H349.911V16.464C349.911 15.568 349.727 14.92 349.359 14.52C348.991 14.12 348.399 13.92 347.583 13.92C347.023 13.92 346.495 13.992 345.999 14.136C345.503 14.28 344.959 14.488 344.367 14.76C343.935 15 343.631 15.12 343.455 15.12C343.215 15.12 343.015 15.032 342.855 14.856C342.711 14.68 342.639 14.456 342.639 14.184C342.639 13.944 342.703 13.736 342.831 13.56C342.975 13.368 343.199 13.184 343.503 13.008C344.063 12.704 344.719 12.464 345.471 12.288C346.223 12.096 346.951 12 347.655 12ZM346.911 22.368C347.791 22.368 348.511 22.072 349.071 21.48C349.631 20.872 349.911 20.096 349.911 19.152V18.528H349.479C348.231 18.528 347.271 18.584 346.599 18.696C345.927 18.808 345.447 19 345.159 19.272C344.871 19.528 344.727 19.904 344.727 20.4C344.727 20.976 344.935 21.448 345.351 21.816C345.767 22.184 346.287 22.368 346.911 22.368ZM361.722 12.048C362.49 12 362.874 12.328 362.874 13.032C362.874 13.384 362.786 13.648 362.61 13.824C362.434 14 362.13 14.104 361.698 14.136L360.978 14.208C359.97 14.304 359.218 14.656 358.722 15.264C358.242 15.872 358.002 16.608 358.002 17.472V22.968C358.002 23.352 357.89 23.64 357.666 23.832C357.442 24.024 357.154 24.12 356.802 24.12C356.45 24.12 356.154 24.024 355.914 23.832C355.69 23.64 355.578 23.352 355.578 22.968V13.2C355.578 12.832 355.69 12.552 355.914 12.36C356.154 12.152 356.45 12.048 356.802 12.048C357.122 12.048 357.386 12.152 357.594 12.36C357.818 12.552 357.93 12.824 357.93 13.176V14.328C358.25 13.624 358.714 13.088 359.322 12.72C359.93 12.352 360.618 12.136 361.386 12.072L361.722 12.048ZM369.217 12C370.769 12 371.921 12.392 372.673 13.176C373.441 13.96 373.825 15.152 373.825 16.752V22.968C373.825 23.336 373.721 23.624 373.513 23.832C373.305 24.024 373.017 24.12 372.649 24.12C372.297 24.12 372.017 24.016 371.809 23.808C371.601 23.6 371.497 23.32 371.497 22.968V22.08C371.193 22.752 370.737 23.272 370.129 23.64C369.537 23.992 368.841 24.168 368.041 24.168C367.273 24.168 366.569 24.016 365.929 23.712C365.305 23.392 364.809 22.96 364.441 22.416C364.073 21.872 363.889 21.256 363.889 20.568C363.873 19.704 364.089 19.032 364.537 18.552C364.985 18.056 365.713 17.704 366.721 17.496C367.729 17.272 369.129 17.16 370.921 17.16H371.473V16.464C371.473 15.568 371.289 14.92 370.921 14.52C370.553 14.12 369.961 13.92 369.145 13.92C368.585 13.92 368.057 13.992 367.561 14.136C367.065 14.28 366.521 14.488 365.929 14.76C365.497 15 365.193 15.12 365.017 15.12C364.777 15.12 364.577 15.032 364.417 14.856C364.273 14.68 364.201 14.456 364.201 14.184C364.201 13.944 364.265 13.736 364.393 13.56C364.537 13.368 364.761 13.184 365.065 13.008C365.625 12.704 366.281 12.464 367.033 12.288C367.785 12.096 368.513 12 369.217 12ZM368.473 22.368C369.353 22.368 370.073 22.072 370.633 21.48C371.193 20.872 371.473 20.096 371.473 19.152V18.528H371.041C369.793 18.528 368.833 18.584 368.161 18.696C367.489 18.808 367.009 19 366.721 19.272C366.433 19.528 366.289 19.904 366.289 20.4C366.289 20.976 366.497 21.448 366.913 21.816C367.329 22.184 367.849 22.368 368.473 22.368ZM398.781 6.96C399.133 6.96 399.421 7.08 399.645 7.32C399.869 7.544 399.981 7.84 399.981 8.208V22.944C399.981 23.312 399.877 23.6 399.669 23.808C399.477 24.016 399.205 24.12 398.853 24.12C398.517 24.12 398.253 24.016 398.061 23.808C397.869 23.6 397.773 23.312 397.773 22.944V11.784L393.069 20.736C392.765 21.296 392.373 21.576 391.893 21.576C391.413 21.576 391.021 21.296 390.717 20.736L385.989 11.88V22.944C385.989 23.312 385.893 23.6 385.701 23.808C385.509 24.016 385.237 24.12 384.885 24.12C384.549 24.12 384.277 24.016 384.069 23.808C383.877 23.584 383.781 23.296 383.781 22.944V8.208C383.781 7.84 383.893 7.544 384.117 7.32C384.341 7.08 384.629 6.96 384.981 6.96C385.477 6.96 385.877 7.248 386.181 7.824L391.917 18.792L397.605 7.824C397.909 7.248 398.301 6.96 398.781 6.96ZM412.817 21.048C413.041 21.048 413.225 21.136 413.369 21.312C413.513 21.488 413.585 21.712 413.585 21.984C413.585 22.448 413.297 22.84 412.721 23.16C412.161 23.48 411.545 23.728 410.873 23.904C410.217 24.08 409.585 24.168 408.977 24.168C407.121 24.168 405.657 23.632 404.585 22.56C403.513 21.472 402.977 19.992 402.977 18.12C402.977 16.92 403.209 15.856 403.673 14.928C404.153 14 404.817 13.28 405.665 12.768C406.529 12.256 407.505 12 408.593 12C410.161 12 411.401 12.504 412.313 13.512C413.225 14.52 413.681 15.88 413.681 17.592C413.681 18.232 413.393 18.552 412.817 18.552H405.401C405.561 21.032 406.753 22.272 408.977 22.272C409.569 22.272 410.081 22.192 410.513 22.032C410.945 21.872 411.401 21.664 411.881 21.408C411.929 21.376 412.057 21.312 412.265 21.216C412.489 21.104 412.673 21.048 412.817 21.048ZM408.641 13.776C407.713 13.776 406.969 14.072 406.409 14.664C405.849 15.256 405.513 16.088 405.401 17.16H411.593C411.545 16.072 411.265 15.24 410.753 14.664C410.257 14.072 409.553 13.776 408.641 13.776ZM406.769 10.416C406.593 10.704 406.345 10.848 406.025 10.848C405.801 10.848 405.601 10.768 405.425 10.608C405.265 10.448 405.185 10.256 405.185 10.032C405.185 9.856 405.249 9.68 405.377 9.504L407.537 6.408C407.697 6.2 407.857 6.048 408.017 5.952C408.177 5.84 408.369 5.784 408.593 5.784C408.817 5.784 409.009 5.832 409.169 5.928C409.329 6.024 409.489 6.184 409.649 6.408L411.809 9.504C411.937 9.68 412.001 9.856 412.001 10.032C412.001 10.256 411.913 10.448 411.737 10.608C411.577 10.768 411.385 10.848 411.161 10.848C410.857 10.848 410.609 10.704 410.417 10.416L408.593 7.536L406.769 10.416ZM420.432 24.168C418.8 24.168 417.464 23.832 416.424 23.16C416.136 22.984 415.928 22.8 415.8 22.608C415.688 22.416 415.632 22.2 415.632 21.96C415.632 21.704 415.704 21.488 415.848 21.312C415.992 21.136 416.176 21.048 416.4 21.048C416.608 21.048 416.936 21.176 417.384 21.432C417.864 21.688 418.328 21.896 418.776 22.056C419.24 22.216 419.816 22.296 420.504 22.296C421.272 22.296 421.872 22.16 422.304 21.888C422.736 21.616 422.952 21.232 422.952 20.736C422.952 20.416 422.864 20.16 422.688 19.968C422.528 19.776 422.24 19.608 421.824 19.464C421.408 19.304 420.792 19.136 419.976 18.96C418.568 18.656 417.552 18.248 416.928 17.736C416.32 17.208 416.016 16.496 416.016 15.6C416.016 14.912 416.216 14.296 416.616 13.752C417.016 13.192 417.568 12.76 418.272 12.456C418.976 12.152 419.776 12 420.672 12C421.312 12 421.936 12.088 422.544 12.264C423.152 12.424 423.688 12.664 424.152 12.984C424.68 13.336 424.944 13.744 424.944 14.208C424.944 14.464 424.864 14.68 424.704 14.856C424.56 15.032 424.384 15.12 424.176 15.12C424.032 15.12 423.888 15.088 423.744 15.024C423.6 14.96 423.408 14.856 423.168 14.712C422.736 14.456 422.328 14.256 421.944 14.112C421.576 13.968 421.112 13.896 420.552 13.896C419.88 13.896 419.336 14.04 418.92 14.328C418.52 14.616 418.32 15.008 418.32 15.504C418.32 15.952 418.504 16.304 418.872 16.56C419.256 16.8 419.968 17.032 421.008 17.256C422.08 17.48 422.92 17.736 423.528 18.024C424.136 18.312 424.568 18.672 424.824 19.104C425.096 19.52 425.232 20.056 425.232 20.712C425.232 21.752 424.792 22.592 423.912 23.232C423.048 23.856 421.888 24.168 420.432 24.168ZM427.954 24.84C427.874 25.096 427.746 25.28 427.57 25.392C427.394 25.52 427.202 25.584 426.994 25.584C426.722 25.584 426.482 25.496 426.274 25.32C426.066 25.144 425.962 24.912 425.962 24.624C425.962 24.512 425.986 24.384 426.034 24.24L431.65 6.648C431.73 6.392 431.858 6.208 432.034 6.096C432.21 5.968 432.402 5.904 432.61 5.904C432.882 5.904 433.122 5.992 433.33 6.168C433.538 6.344 433.642 6.576 433.642 6.864C433.642 6.976 433.618 7.104 433.57 7.248L427.954 24.84ZM449.779 22.56C449.859 22.752 449.899 22.912 449.899 23.04C449.899 23.344 449.771 23.6 449.515 23.808C449.275 24.016 449.003 24.12 448.699 24.12C448.491 24.12 448.291 24.064 448.099 23.952C447.923 23.824 447.787 23.648 447.691 23.424L446.107 19.824H437.323L435.739 23.424C435.643 23.648 435.499 23.824 435.307 23.952C435.115 24.064 434.915 24.12 434.707 24.12C434.387 24.12 434.099 24.016 433.843 23.808C433.603 23.6 433.483 23.344 433.483 23.04C433.483 22.912 433.523 22.752 433.603 22.56L440.371 7.752C440.483 7.496 440.659 7.296 440.899 7.152C441.155 7.008 441.419 6.936 441.691 6.936C441.963 6.936 442.219 7.008 442.459 7.152C442.715 7.296 442.899 7.496 443.011 7.752L449.779 22.56ZM438.211 17.856H445.243L441.715 9.912L438.211 17.856ZM458.5 12C461.3 12 462.7 13.576 462.7 16.728V22.968C462.7 23.336 462.588 23.624 462.364 23.832C462.156 24.024 461.86 24.12 461.476 24.12C461.108 24.12 460.812 24.016 460.588 23.808C460.38 23.6 460.276 23.32 460.276 22.968V16.848C460.276 15.856 460.076 15.128 459.676 14.664C459.292 14.2 458.684 13.968 457.852 13.968C456.876 13.968 456.092 14.272 455.5 14.88C454.908 15.488 454.612 16.304 454.612 17.328V22.968C454.612 23.32 454.5 23.6 454.276 23.808C454.068 24.016 453.78 24.12 453.412 24.12C453.044 24.12 452.748 24.016 452.524 23.808C452.3 23.6 452.188 23.32 452.188 22.968V13.2C452.188 12.864 452.3 12.592 452.524 12.384C452.764 12.16 453.06 12.048 453.412 12.048C453.764 12.048 454.044 12.152 454.252 12.36C454.46 12.568 454.564 12.84 454.564 13.176V14.16C454.948 13.456 455.484 12.92 456.172 12.552C456.86 12.184 457.636 12 458.5 12ZM471.104 24.168C469.952 24.168 468.936 23.92 468.056 23.424C467.192 22.928 466.52 22.224 466.04 21.312C465.576 20.384 465.344 19.312 465.344 18.096C465.344 16.864 465.576 15.792 466.04 14.88C466.52 13.952 467.192 13.24 468.056 12.744C468.936 12.248 469.952 12 471.104 12C472.256 12 473.264 12.248 474.128 12.744C475.008 13.24 475.68 13.952 476.144 14.88C476.624 15.792 476.864 16.864 476.864 18.096C476.864 19.312 476.624 20.384 476.144 21.312C475.68 22.224 475.008 22.928 474.128 23.424C473.264 23.92 472.256 24.168 471.104 24.168ZM471.104 22.248C472.176 22.248 472.992 21.896 473.552 21.192C474.128 20.488 474.416 19.456 474.416 18.096C474.416 16.752 474.128 15.728 473.552 15.024C472.976 14.304 472.16 13.944 471.104 13.944C470.048 13.944 469.232 14.304 468.656 15.024C468.08 15.728 467.792 16.752 467.792 18.096C467.792 19.456 468.072 20.488 468.632 21.192C469.208 21.896 470.032 22.248 471.104 22.248Z" fill="#7A7A92"/>
<path d="M82.3248 50.1365C81.4715 50.1365 80.6523 50.0114 79.8672 49.7611C79.0935 49.4994 78.4734 49.1524 78.0069 48.72C77.8363 48.5607 77.7509 48.3616 77.7509 48.1227C77.7509 47.9634 77.7964 47.8268 77.8875 47.7131C77.9785 47.5879 78.0866 47.5253 78.2117 47.5253C78.3596 47.5253 78.5189 47.5879 78.6896 47.7131C79.7477 48.5323 80.9538 48.9419 82.3077 48.9419C83.2862 48.9419 84.0372 48.7541 84.5605 48.3787C85.0839 48.0032 85.3456 47.4684 85.3456 46.7744C85.3456 46.3762 85.2204 46.0576 84.9701 45.8187C84.7198 45.5684 84.3899 45.3692 83.9803 45.2213C83.5707 45.0734 83.0188 44.9198 82.3248 44.7605C81.3918 44.5444 80.6238 44.3168 80.0208 44.0779C79.4292 43.8389 78.9456 43.4976 78.5701 43.0539C78.206 42.6101 78.024 42.0299 78.024 41.3131C78.024 40.6304 78.206 40.0274 78.5701 39.504C78.9456 38.9692 79.4633 38.5596 80.1232 38.2752C80.7945 37.9794 81.5568 37.8315 82.4101 37.8315C83.2066 37.8315 83.9461 37.9566 84.6288 38.2069C85.3228 38.4459 85.9031 38.7929 86.3696 39.248C86.5516 39.43 86.6427 39.6292 86.6427 39.8453C86.6427 40.0046 86.5972 40.1468 86.5061 40.272C86.4151 40.3858 86.307 40.4427 86.1819 40.4427C86.0567 40.4427 85.8917 40.3801 85.6869 40.2549C85.1294 39.7998 84.6117 39.4812 84.1339 39.2992C83.656 39.1172 83.0814 39.0261 82.4101 39.0261C81.4658 39.0261 80.7319 39.2252 80.2085 39.6235C79.6852 40.0103 79.4235 40.5564 79.4235 41.2619C79.4235 41.8649 79.651 42.32 80.1061 42.6272C80.5726 42.923 81.2837 43.1847 82.2395 43.4123C83.2748 43.6626 84.0884 43.8958 84.68 44.112C85.2716 44.3168 85.7609 44.6297 86.1477 45.0507C86.546 45.4716 86.7451 46.0348 86.7451 46.7403C86.7451 47.4116 86.5573 48.0032 86.1819 48.5152C85.8178 49.0272 85.3001 49.4254 84.6288 49.7099C83.9575 49.9943 83.1895 50.1365 82.3248 50.1365ZM95.2475 48.0715C95.3726 48.0715 95.4807 48.1227 95.5717 48.2251C95.6628 48.3275 95.7083 48.4583 95.7083 48.6176C95.7083 48.902 95.5092 49.1637 95.1109 49.4027C94.7013 49.6416 94.269 49.8236 93.8139 49.9488C93.3588 50.0626 92.915 50.1195 92.4827 50.1195C91.197 50.1195 90.1787 49.7383 89.4277 48.976C88.6882 48.2137 88.3184 47.1612 88.3184 45.8187C88.3184 44.9653 88.4834 44.2144 88.8133 43.5659C89.1433 42.906 89.6041 42.394 90.1957 42.0299C90.7988 41.6658 91.4814 41.4837 92.2437 41.4837C93.3246 41.4837 94.1836 41.8364 94.8208 42.5419C95.458 43.2473 95.7765 44.203 95.7765 45.4091C95.7765 45.6366 95.731 45.8016 95.64 45.904C95.549 46.0064 95.4011 46.0576 95.1963 46.0576H89.7008C89.8032 48.0146 90.7305 48.9931 92.4827 48.9931C92.9264 48.9931 93.3076 48.9362 93.6261 48.8224C93.9447 48.6972 94.286 48.5323 94.6501 48.3275C94.946 48.1568 95.1451 48.0715 95.2475 48.0715ZM92.2608 42.5589C91.5326 42.5589 90.9467 42.7865 90.5029 43.2416C90.0706 43.6967 89.8146 44.3396 89.7349 45.1701H94.5648C94.542 44.3282 94.3316 43.6853 93.9333 43.2416C93.5351 42.7865 92.9776 42.5589 92.2608 42.5589ZM98.5131 50.0853C98.3083 50.0853 98.1376 50.0284 98.0011 49.9147C97.8759 49.7895 97.8133 49.6188 97.8133 49.4027V38.5653C97.8133 38.3492 97.8759 38.1842 98.0011 38.0704C98.1376 37.9452 98.3083 37.8827 98.5131 37.8827C98.7065 37.8827 98.8658 37.9452 98.9909 38.0704C99.1275 38.1842 99.1957 38.3492 99.1957 38.5653V49.4027C99.1957 49.6188 99.1275 49.7895 98.9909 49.9147C98.8658 50.0284 98.7065 50.0853 98.5131 50.0853ZM108.214 48.0715C108.339 48.0715 108.447 48.1227 108.538 48.2251C108.629 48.3275 108.675 48.4583 108.675 48.6176C108.675 48.902 108.476 49.1637 108.078 49.4027C107.668 49.6416 107.236 49.8236 106.781 49.9488C106.325 50.0626 105.882 50.1195 105.449 50.1195C104.164 50.1195 103.145 49.7383 102.394 48.976C101.655 48.2137 101.285 47.1612 101.285 45.8187C101.285 44.9653 101.45 44.2144 101.78 43.5659C102.11 42.906 102.571 42.394 103.162 42.0299C103.765 41.6658 104.448 41.4837 105.21 41.4837C106.291 41.4837 107.15 41.8364 107.787 42.5419C108.425 43.2473 108.743 44.203 108.743 45.4091C108.743 45.6366 108.698 45.8016 108.607 45.904C108.516 46.0064 108.368 46.0576 108.163 46.0576H102.667C102.77 48.0146 103.697 48.9931 105.449 48.9931C105.893 48.9931 106.274 48.9362 106.593 48.8224C106.911 48.6972 107.253 48.5323 107.617 48.3275C107.913 48.1568 108.112 48.0715 108.214 48.0715ZM105.227 42.5589C104.499 42.5589 103.913 42.7865 103.47 43.2416C103.037 43.6967 102.781 44.3396 102.702 45.1701H107.531C107.509 44.3282 107.298 43.6853 106.9 43.2416C106.502 42.7865 105.944 42.5589 105.227 42.5589ZM114.21 50.1195C113.437 50.1195 112.748 49.9431 112.145 49.5904C111.554 49.2377 111.093 48.7371 110.763 48.0885C110.444 47.44 110.285 46.6891 110.285 45.8357C110.285 44.9824 110.45 44.2258 110.78 43.5659C111.121 42.906 111.594 42.394 112.197 42.0299C112.8 41.6658 113.494 41.4837 114.279 41.4837C114.711 41.4837 115.138 41.5463 115.559 41.6715C115.991 41.7852 116.366 41.9559 116.685 42.1835C116.89 42.32 117.032 42.4565 117.112 42.5931C117.203 42.7182 117.248 42.8604 117.248 43.0197C117.248 43.179 117.203 43.3099 117.112 43.4123C117.032 43.5147 116.924 43.5659 116.787 43.5659C116.708 43.5659 116.622 43.5431 116.531 43.4976C116.44 43.4521 116.361 43.4066 116.293 43.3611C116.236 43.3156 116.196 43.2871 116.173 43.2757C115.877 43.0823 115.593 42.9287 115.32 42.8149C115.058 42.7012 114.734 42.6443 114.347 42.6443C113.516 42.6443 112.868 42.9287 112.401 43.4976C111.946 44.0551 111.719 44.8345 111.719 45.8357C111.719 46.837 111.946 47.6107 112.401 48.1568C112.868 48.7029 113.516 48.976 114.347 48.976C114.734 48.976 115.064 48.9191 115.337 48.8053C115.621 48.6916 115.906 48.538 116.19 48.3445C116.315 48.2649 116.435 48.1966 116.549 48.1397C116.662 48.0828 116.759 48.0544 116.839 48.0544C116.964 48.0544 117.066 48.1056 117.146 48.208C117.237 48.3104 117.282 48.4412 117.282 48.6005C117.282 48.7484 117.243 48.885 117.163 49.0101C117.083 49.1239 116.935 49.2548 116.719 49.4027C116.401 49.6188 116.014 49.7952 115.559 49.9317C115.115 50.0569 114.666 50.1195 114.21 50.1195ZM119.646 50.0853C119.442 50.0853 119.271 50.0284 119.134 49.9147C119.009 49.7895 118.947 49.6188 118.947 49.4027V42.2005C118.947 41.9844 119.009 41.8194 119.134 41.7056C119.271 41.5804 119.442 41.5179 119.646 41.5179C119.851 41.5179 120.016 41.5804 120.141 41.7056C120.266 41.8194 120.329 41.9844 120.329 42.2005V49.4027C120.329 49.6302 120.266 49.8009 120.141 49.9147C120.016 50.0284 119.851 50.0853 119.646 50.0853ZM119.646 39.7259C119.373 39.7259 119.151 39.6462 118.981 39.4869C118.81 39.3276 118.725 39.1172 118.725 38.8555C118.725 38.6052 118.81 38.4004 118.981 38.2411C119.151 38.0818 119.373 38.0021 119.646 38.0021C119.919 38.0021 120.141 38.0818 120.312 38.2411C120.483 38.4004 120.568 38.6052 120.568 38.8555C120.568 39.1172 120.483 39.3276 120.312 39.4869C120.141 39.6462 119.919 39.7259 119.646 39.7259ZM126.361 50.1195C125.576 50.1195 124.882 49.9431 124.279 49.5904C123.687 49.2377 123.226 48.7371 122.896 48.0885C122.578 47.4286 122.418 46.6663 122.418 45.8016C122.418 44.9369 122.578 44.1803 122.896 43.5317C123.226 42.8718 123.687 42.3655 124.279 42.0128C124.882 41.6601 125.576 41.4837 126.361 41.4837C127.146 41.4837 127.84 41.6601 128.443 42.0128C129.046 42.3655 129.507 42.8718 129.825 43.5317C130.155 44.1803 130.32 44.9369 130.32 45.8016C130.32 46.6663 130.155 47.4286 129.825 48.0885C129.507 48.7371 129.046 49.2377 128.443 49.5904C127.84 49.9431 127.146 50.1195 126.361 50.1195ZM126.361 48.976C127.18 48.976 127.806 48.7086 128.238 48.1739C128.682 47.6277 128.904 46.837 128.904 45.8016C128.904 44.789 128.682 44.0096 128.238 43.4635C127.794 42.906 127.169 42.6272 126.361 42.6272C125.553 42.6272 124.927 42.906 124.483 43.4635C124.04 44.0096 123.818 44.789 123.818 45.8016C123.818 46.8256 124.034 47.6107 124.466 48.1568C124.91 48.7029 125.542 48.976 126.361 48.976ZM136.561 41.4837C138.552 41.4837 139.548 42.5817 139.548 44.7776V49.4027C139.548 49.6188 139.485 49.7895 139.36 49.9147C139.246 50.0284 139.082 50.0853 138.865 50.0853C138.649 50.0853 138.478 50.0284 138.353 49.9147C138.228 49.7895 138.166 49.6188 138.166 49.4027V44.8629C138.166 44.0892 138.012 43.526 137.705 43.1733C137.409 42.8206 136.931 42.6443 136.271 42.6443C135.509 42.6443 134.9 42.8775 134.445 43.344C133.99 43.8105 133.762 44.442 133.762 45.2384V49.4027C133.762 49.6188 133.7 49.7895 133.575 49.9147C133.461 50.0284 133.296 50.0853 133.08 50.0853C132.864 50.0853 132.693 50.0284 132.568 49.9147C132.443 49.7895 132.38 49.6188 132.38 49.4027V42.2005C132.38 41.9957 132.443 41.8308 132.568 41.7056C132.693 41.5804 132.864 41.5179 133.08 41.5179C133.285 41.5179 133.444 41.5804 133.558 41.7056C133.683 41.8308 133.745 41.99 133.745 42.1835V43.0539C134.018 42.5419 134.4 42.155 134.889 41.8933C135.378 41.6203 135.936 41.4837 136.561 41.4837ZM148.514 48.0715C148.639 48.0715 148.747 48.1227 148.838 48.2251C148.929 48.3275 148.975 48.4583 148.975 48.6176C148.975 48.902 148.776 49.1637 148.378 49.4027C147.968 49.6416 147.536 49.8236 147.081 49.9488C146.625 50.0626 146.182 50.1195 145.749 50.1195C144.464 50.1195 143.445 49.7383 142.694 48.976C141.955 48.2137 141.585 47.1612 141.585 45.8187C141.585 44.9653 141.75 44.2144 142.08 43.5659C142.41 42.906 142.871 42.394 143.462 42.0299C144.065 41.6658 144.748 41.4837 145.51 41.4837C146.591 41.4837 147.45 41.8364 148.087 42.5419C148.725 43.2473 149.043 44.203 149.043 45.4091C149.043 45.6366 148.998 45.8016 148.907 45.904C148.816 46.0064 148.668 46.0576 148.463 46.0576H142.967C143.07 48.0146 143.997 48.9931 145.749 48.9931C146.193 48.9931 146.574 48.9362 146.893 48.8224C147.211 48.6972 147.553 48.5323 147.917 48.3275C148.213 48.1568 148.412 48.0715 148.514 48.0715ZM145.527 42.5589C144.799 42.5589 144.213 42.7865 143.77 43.2416C143.337 43.6967 143.081 44.3396 143.002 45.1701H147.831C147.809 44.3282 147.598 43.6853 147.2 43.2416C146.802 42.7865 146.244 42.5589 145.527 42.5589ZM162.597 48.8224C162.802 48.8224 162.961 48.8736 163.075 48.976C163.188 49.0784 163.245 49.2206 163.245 49.4027C163.245 49.5961 163.188 49.744 163.075 49.8464C162.972 49.9488 162.813 50 162.597 50H156.948C156.732 50 156.567 49.9488 156.453 49.8464C156.35 49.744 156.299 49.5961 156.299 49.4027C156.299 49.2206 156.356 49.0784 156.47 48.976C156.584 48.8736 156.743 48.8224 156.948 48.8224H159.064V39.6747L157.204 40.8864C157.113 40.9433 157.022 40.9717 156.931 40.9717C156.771 40.9717 156.629 40.8978 156.504 40.7499C156.39 40.602 156.333 40.4427 156.333 40.272C156.333 40.0331 156.424 39.8624 156.606 39.76L159.201 38.0704C159.394 37.9452 159.593 37.8827 159.798 37.8827C159.991 37.8827 160.151 37.9452 160.276 38.0704C160.401 38.1956 160.463 38.3719 160.463 38.5995V48.8224H162.597ZM173.561 50.1195C172.776 50.1195 172.082 49.9431 171.479 49.5904C170.887 49.2377 170.426 48.7371 170.096 48.0885C169.778 47.4286 169.618 46.6663 169.618 45.8016C169.618 44.9369 169.778 44.1803 170.096 43.5317C170.426 42.8718 170.887 42.3655 171.479 42.0128C172.082 41.6601 172.776 41.4837 173.561 41.4837C174.346 41.4837 175.04 41.6601 175.643 42.0128C176.246 42.3655 176.707 42.8718 177.025 43.5317C177.355 44.1803 177.52 44.9369 177.52 45.8016C177.52 46.6663 177.355 47.4286 177.025 48.0885C176.707 48.7371 176.246 49.2377 175.643 49.5904C175.04 49.9431 174.346 50.1195 173.561 50.1195ZM173.561 48.976C174.38 48.976 175.006 48.7086 175.438 48.1739C175.882 47.6277 176.104 46.837 176.104 45.8016C176.104 44.789 175.882 44.0096 175.438 43.4635C174.994 42.906 174.369 42.6272 173.561 42.6272C172.753 42.6272 172.127 42.906 171.683 43.4635C171.24 44.0096 171.018 44.789 171.018 45.8016C171.018 46.8256 171.234 47.6107 171.666 48.1568C172.11 48.7029 172.742 48.976 173.561 48.976ZM183.761 41.4837C184.49 41.4837 185.132 41.6658 185.69 42.0299C186.247 42.394 186.68 42.906 186.987 43.5659C187.294 44.2144 187.448 44.971 187.448 45.8357C187.448 46.7004 187.294 47.4571 186.987 48.1056C186.68 48.7428 186.247 49.2377 185.69 49.5904C185.144 49.9431 184.501 50.1195 183.761 50.1195C183.113 50.1195 182.544 49.9772 182.055 49.6928C181.577 49.4084 181.213 49.0044 180.962 48.4811V52.4917C180.962 52.6965 180.9 52.8558 180.775 52.9696C180.661 53.0948 180.496 53.1573 180.28 53.1573C180.064 53.1573 179.893 53.0948 179.768 52.9696C179.643 52.8444 179.58 52.6852 179.58 52.4917V42.2005C179.58 41.9957 179.643 41.8308 179.768 41.7056C179.893 41.5804 180.064 41.5179 180.28 41.5179C180.496 41.5179 180.661 41.5804 180.775 41.7056C180.9 41.8308 180.962 41.9957 180.962 42.2005V43.1221C181.213 42.5988 181.577 42.1948 182.055 41.9104C182.544 41.626 183.113 41.4837 183.761 41.4837ZM183.488 48.976C184.296 48.976 184.922 48.7029 185.366 48.1568C185.809 47.6107 186.031 46.837 186.031 45.8357C186.031 44.8345 185.809 44.0551 185.366 43.4976C184.922 42.9287 184.296 42.6443 183.488 42.6443C182.68 42.6443 182.055 42.9173 181.611 43.4635C181.179 44.0096 180.962 44.789 180.962 45.8016C180.962 46.8142 181.179 47.5993 181.611 48.1568C182.055 48.7029 182.68 48.976 183.488 48.976ZM195.572 48.0544C195.697 48.0544 195.8 48.1056 195.879 48.208C195.97 48.3104 196.016 48.4412 196.016 48.6005C196.016 48.7484 195.976 48.885 195.896 49.0101C195.817 49.1239 195.669 49.2548 195.453 49.4027C195.168 49.5961 194.832 49.7554 194.446 49.8805C194.07 50.0057 193.678 50.0796 193.268 50.1024L193.2 50.7509C193.336 50.7168 193.484 50.6997 193.643 50.6997C193.996 50.6997 194.292 50.7964 194.531 50.9899C194.781 51.1947 194.906 51.4905 194.906 51.8773C194.906 52.2983 194.73 52.6396 194.377 52.9013C194.025 53.163 193.53 53.2939 192.893 53.2939C192.483 53.2939 192.096 53.2256 191.732 53.0891C191.641 53.0549 191.567 52.998 191.51 52.9184C191.465 52.8501 191.442 52.7762 191.442 52.6965C191.442 52.5941 191.476 52.5031 191.544 52.4235C191.613 52.3552 191.704 52.3211 191.817 52.3211C191.874 52.3211 191.92 52.3268 191.954 52.3381C192.261 52.4292 192.58 52.4747 192.91 52.4747C193.228 52.4747 193.467 52.4235 193.626 52.3211C193.797 52.2187 193.882 52.0708 193.882 51.8773C193.882 51.7294 193.837 51.6156 193.746 51.536C193.655 51.4564 193.524 51.4165 193.353 51.4165C193.228 51.4165 193.069 51.4393 192.875 51.4848C192.682 51.5417 192.563 51.5701 192.517 51.5701C192.426 51.5701 192.341 51.536 192.261 51.4677C192.193 51.4108 192.164 51.3369 192.176 51.2459L192.312 50.0853C191.311 49.9374 190.509 49.488 189.906 48.7371C189.314 47.9748 189.018 47.0076 189.018 45.8357C189.018 44.9824 189.183 44.2258 189.513 43.5659C189.855 42.906 190.327 42.394 190.93 42.0299C191.533 41.6658 192.227 41.4837 193.012 41.4837C193.444 41.4837 193.871 41.5463 194.292 41.6715C194.724 41.7852 195.1 41.9559 195.418 42.1835C195.623 42.32 195.765 42.4565 195.845 42.5931C195.936 42.7182 195.982 42.8604 195.982 43.0197C195.982 43.179 195.936 43.3099 195.845 43.4123C195.765 43.5147 195.657 43.5659 195.521 43.5659C195.441 43.5659 195.356 43.5431 195.265 43.4976C195.174 43.4521 195.094 43.4066 195.026 43.3611C194.969 43.3156 194.929 43.2871 194.906 43.2757C194.611 43.0823 194.326 42.9287 194.053 42.8149C193.791 42.7012 193.467 42.6443 193.08 42.6443C192.25 42.6443 191.601 42.9287 191.135 43.4976C190.68 44.0551 190.452 44.8345 190.452 45.8357C190.452 46.837 190.68 47.6107 191.135 48.1568C191.601 48.7029 192.25 48.976 193.08 48.976C193.467 48.976 193.797 48.9191 194.07 48.8053C194.355 48.6916 194.639 48.538 194.923 48.3445C195.049 48.2649 195.168 48.1966 195.282 48.1397C195.396 48.0828 195.492 48.0544 195.572 48.0544ZM201.076 41.4837C203.158 41.4837 204.199 42.576 204.199 44.7605V49.4027C204.199 49.6075 204.137 49.7724 204.012 49.8976C203.898 50.0228 203.739 50.0853 203.534 50.0853C203.329 50.0853 203.164 50.0228 203.039 49.8976C202.914 49.7724 202.851 49.6075 202.851 49.4027V48.5835C202.635 49.0727 202.305 49.4539 201.861 49.7269C201.418 49.9886 200.906 50.1195 200.325 50.1195C199.791 50.1195 199.296 50.0114 198.841 49.7952C198.397 49.579 198.044 49.2775 197.782 48.8907C197.521 48.5038 197.39 48.0772 197.39 47.6107C197.39 46.9849 197.549 46.5013 197.868 46.16C198.186 45.8073 198.71 45.557 199.438 45.4091C200.166 45.2498 201.179 45.1701 202.476 45.1701H202.851V44.6069C202.851 43.9243 202.709 43.4236 202.425 43.1051C202.151 42.7865 201.702 42.6272 201.076 42.6272C200.303 42.6272 199.518 42.8377 198.721 43.2587C198.414 43.4521 198.198 43.5488 198.073 43.5488C197.936 43.5488 197.822 43.4976 197.731 43.3952C197.64 43.2928 197.595 43.162 197.595 43.0027C197.595 42.8434 197.64 42.7068 197.731 42.5931C197.834 42.4679 197.993 42.3428 198.209 42.2176C198.607 41.99 199.057 41.8137 199.557 41.6885C200.069 41.552 200.576 41.4837 201.076 41.4837ZM200.513 49.0272C201.196 49.0272 201.753 48.7996 202.186 48.3445C202.629 47.878 202.851 47.2807 202.851 46.5525V46.0576H202.544C201.543 46.0576 200.78 46.1031 200.257 46.1941C199.734 46.2738 199.358 46.416 199.131 46.6208C198.914 46.8142 198.806 47.1044 198.806 47.4912C198.806 47.9349 198.966 48.3047 199.284 48.6005C199.614 48.885 200.024 49.0272 200.513 49.0272ZM202.288 39.9307C202.072 39.9307 201.861 39.8795 201.657 39.7771C201.452 39.6747 201.207 39.5268 200.923 39.3333C200.672 39.174 200.473 39.0603 200.325 38.992C200.177 38.9124 200.041 38.8725 199.916 38.8725C199.722 38.8725 199.569 38.9237 199.455 39.0261C199.353 39.1285 199.25 39.2708 199.148 39.4528C199.068 39.578 199 39.6747 198.943 39.7429C198.886 39.7998 198.818 39.8283 198.738 39.8283C198.636 39.8283 198.55 39.7884 198.482 39.7088C198.414 39.6292 198.38 39.5268 198.38 39.4016C198.38 39.1968 198.442 38.9692 198.567 38.7189C198.693 38.4686 198.869 38.2524 199.097 38.0704C199.324 37.8884 199.58 37.7973 199.865 37.7973C200.081 37.7973 200.291 37.8485 200.496 37.9509C200.701 38.0533 200.945 38.2012 201.23 38.3947C201.48 38.554 201.679 38.6734 201.827 38.7531C201.975 38.8213 202.112 38.8555 202.237 38.8555C202.419 38.8555 202.561 38.8043 202.663 38.7019C202.777 38.5995 202.891 38.4572 203.005 38.2752C203.084 38.1387 203.153 38.042 203.21 37.9851C203.266 37.9168 203.335 37.8827 203.414 37.8827C203.517 37.8827 203.602 37.9282 203.67 38.0192C203.739 38.0988 203.773 38.2012 203.773 38.3264C203.773 38.5198 203.71 38.7474 203.585 39.0091C203.46 39.2594 203.284 39.4756 203.056 39.6576C202.828 39.8396 202.572 39.9307 202.288 39.9307ZM210.177 50.1195C209.392 50.1195 208.698 49.9431 208.095 49.5904C207.504 49.2377 207.043 48.7371 206.713 48.0885C206.394 47.4286 206.235 46.6663 206.235 45.8016C206.235 44.9369 206.394 44.1803 206.713 43.5317C207.043 42.8718 207.504 42.3655 208.095 42.0128C208.698 41.6601 209.392 41.4837 210.177 41.4837C210.963 41.4837 211.657 41.6601 212.26 42.0128C212.863 42.3655 213.323 42.8718 213.642 43.5317C213.972 44.1803 214.137 44.9369 214.137 45.8016C214.137 46.6663 213.972 47.4286 213.642 48.0885C213.323 48.7371 212.863 49.2377 212.26 49.5904C211.657 49.9431 210.963 50.1195 210.177 50.1195ZM210.177 48.976C210.997 48.976 211.622 48.7086 212.055 48.1739C212.499 47.6277 212.72 46.837 212.72 45.8016C212.72 44.789 212.499 44.0096 212.055 43.4635C211.611 42.906 210.985 42.6272 210.177 42.6272C209.37 42.6272 208.744 42.906 208.3 43.4635C207.856 44.0096 207.635 44.789 207.635 45.8016C207.635 46.8256 207.851 47.6107 208.283 48.1568C208.727 48.7029 209.358 48.976 210.177 48.976ZM216.879 43.4293C216.606 43.4293 216.379 43.344 216.197 43.1733C216.015 42.9913 215.924 42.758 215.924 42.4736C215.924 42.1892 216.015 41.9616 216.197 41.7909C216.379 41.6089 216.606 41.5179 216.879 41.5179C217.141 41.5179 217.357 41.6089 217.528 41.7909C217.71 41.9616 217.801 42.1892 217.801 42.4736C217.801 42.758 217.71 42.9913 217.528 43.1733C217.357 43.344 217.141 43.4293 216.879 43.4293ZM216.879 50.0853C216.606 50.0853 216.379 50 216.197 49.8293C216.015 49.6473 215.924 49.414 215.924 49.1296C215.924 48.8452 216.015 48.6119 216.197 48.4299C216.379 48.2478 216.606 48.1568 216.879 48.1568C217.141 48.1568 217.357 48.2478 217.528 48.4299C217.71 48.6119 217.801 48.8452 217.801 49.1296C217.801 49.414 217.71 49.6473 217.528 49.8293C217.357 50 217.141 50.0853 216.879 50.0853Z" fill="#8989A2"/>
<g clip-path="url(#clip0)">
<path d="M44 28C44 26.24 42.46 24.7 40.7 24.7H28.6L17.6 7.10001H13.2L18.7 24.7H6.6L3.3 20.3H0L2.2 28L0 35.7H3.3L6.6 31.3H18.7L13.2 48.9H17.6L28.6 31.3H40.7C42.46 31.3 44 29.76 44 28Z" fill="#FF5A00"/>
</g>
<defs>
<clipPath id="clip0">
<rect width="44" height="44" fill="white" transform="translate(0 6)"/>
</clipPath>
</defs>
</svg>
