<svg width="143" height="57" viewBox="0 0 143 57" fill="none" xmlns="http://www.w3.org/2000/svg">
<path d="M74.2672 6.97658C76.1311 6.97658 77.6463 5.43986 77.6463 3.54949C77.6463 1.65911 76.1311 0.128808 74.2672 0.128808C72.4032 0.128808 70.8943 1.65911 70.888 3.54949C70.888 5.43986 72.4032 6.97658 74.2672 6.97658ZM87.7458 37.1904H87.7718C89.0715 37.1904 90.2253 36.856 91.1192 36.4252C92.0195 35.988 92.6535 35.4865 92.9768 35.0364C93.1733 34.7406 93.3001 34.387 93.3001 34.0076C93.3001 33.7247 93.2367 33.4354 93.1035 33.146C92.7739 32.4837 92.0765 32.1622 91.4615 32.1494C91.3479 32.1494 91.2333 32.1625 91.1256 32.1879C90.7896 32.2844 90.5549 32.4 90.3204 32.4772C90.0795 32.5608 89.8259 32.6186 89.3885 32.6186C88.6721 32.6186 88.2409 32.3357 87.9557 32.0463C87.9054 31.9884 87.4675 31.4355 87.3026 30.7411C87.0364 29.5966 87.0173 27.9634 87.0046 26.8189C87.0241 26.401 87.0241 3.31142 87.0241 2.68773C87.0241 1.83256 86.593 1.14457 85.9907 0.739497C85.3884 0.321552 84.6277 0.135087 83.8732 0.135087C83.1061 0.135087 82.3326 0.32799 81.724 0.739497C81.109 1.13813 80.6526 1.80684 80.659 2.64915V29.9824C80.659 31.5062 81.0837 33.2937 82.1995 34.7212C83.309 36.1486 85.1222 37.1902 87.7469 37.1902L87.7458 37.1904ZM100.775 14.6794C102.373 12.3646 104.047 12.0882 104.833 12.0817C106.12 12.0949 107.426 12.9433 107.8 14.9751C107.863 15.3159 107.889 15.6503 107.889 15.9718C107.889 17.3735 107.356 18.5887 106.558 19.5146C104.649 21.6622 101.993 22.273 99.1843 22.5752C99.1843 22.3244 99.1843 22.0673 99.1843 21.8101C99.1843 19.3024 99.5205 16.4733 100.776 14.6794H100.775ZM96.5596 33.9174C98.6518 35.93 101.505 37.1581 105.074 37.1581H105.09C107.03 37.1581 108.831 36.8173 110.181 36.2515C110.853 35.9621 111.417 35.6213 111.836 35.2163C112.248 34.8112 112.527 34.3161 112.527 33.7631C112.527 33.6795 112.527 33.5895 112.501 33.4995C112.368 32.5607 111.607 31.9242 110.745 31.9435C110.529 31.9435 110.314 31.9756 110.098 32.0463C109.039 32.3871 108.019 32.5736 106.77 32.5736C106.415 32.5736 106.053 32.5604 105.66 32.5286C103.023 32.3164 101.47 30.709 100.531 29.063C100.068 28.2464 99.7641 27.4233 99.5865 26.7932C99.5037 26.5167 99.4469 26.2724 99.4091 26.0859C103.016 25.9317 106.136 25.5073 109.084 23.9255C110.593 23.0703 112.456 21.6879 113.42 19.7654C114.022 18.518 114.339 17.0842 114.339 15.7853C114.339 15.3738 114.307 14.9752 114.244 14.6023C113.629 11.0787 110.402 8.40389 105.406 8.41674C101.932 8.41674 97.4619 9.8056 94.7358 14.0815C93.6898 15.7468 92.2823 18.9424 92.2823 22.9803C92.2823 23.9448 92.3651 24.9543 92.5486 26.0023C93.1509 29.1144 94.4759 31.8985 96.5617 33.9175L96.5596 33.9174ZM34.7481 36.1615C35.3504 36.5794 36.1113 36.7659 36.8656 36.7659C37.6328 36.7659 38.4062 36.573 39.0212 36.1615C39.6298 35.7628 40.0863 35.0877 40.08 34.2518C40.08 34.2518 40.08 19.3024 40.08 19.2317C40.1174 18.0744 40.4223 16.5248 41.1007 15.3095C41.7855 14.0879 42.768 13.2263 44.3151 13.2198C45.0251 13.2264 45.5132 13.4513 45.9126 13.8114C46.5086 14.3579 46.8573 15.271 47.0411 16.1968C47.2186 17.1227 47.2376 18.0422 47.2376 18.563C47.2376 18.6851 47.2376 33.8082 47.2376 34.2132C47.2376 35.0813 47.7005 35.7693 48.3344 36.1679C48.9749 36.5794 49.7736 36.7659 50.5724 36.7659C51.3839 36.7659 52.2017 36.573 52.8548 36.1679C53.4951 35.7693 53.9896 35.1006 53.9833 34.2518V19.2189C54.027 18.0679 54.3319 16.5183 55.004 15.3095C55.6951 14.0879 56.6776 13.2263 58.2184 13.2198C58.9284 13.2264 59.423 13.4513 59.8222 13.8114C60.4119 14.3579 60.767 15.2774 60.9445 16.2033C61.1283 17.1292 61.1474 18.0422 61.1474 18.563C61.1474 18.6851 61.1474 33.2488 61.1474 34.2132C61.1474 35.0813 61.6165 35.7693 62.2504 36.1679C62.8845 36.5794 63.6897 36.7659 64.4883 36.7659C65.2999 36.7659 66.1179 36.573 66.7645 36.1679C67.4111 35.7693 67.9056 35.1006 67.8993 34.2518V19.5018C67.8993 15.766 67.1765 12.9819 65.8262 11.098C64.4694 9.21405 62.4661 8.29459 60.1076 8.30102C57.8316 8.30102 56.0945 9.41337 54.8773 10.6865C54.0403 11.5609 53.4381 12.5061 53.0387 13.252C52.4744 11.7538 51.6755 10.5836 50.6548 9.7606C49.4313 8.77682 47.9034 8.30102 46.1916 8.30102C43.2752 8.3076 41.2783 10.1078 40.0547 11.7667V11.6187C40.0547 10.7571 39.6298 10.0756 39.0275 9.67048C38.4254 9.25253 37.6708 9.06607 36.9165 9.06607C36.1429 9.06607 35.3694 9.25898 34.7608 9.67048C34.1458 10.0691 33.6958 10.7378 33.6958 11.5801C33.6958 11.5801 33.6958 33.5895 33.6958 34.2132C33.6958 35.0683 34.1205 35.7563 34.7228 36.1614L34.7481 36.1615ZM76.3947 9.67048C75.7924 9.25253 75.038 9.06607 74.2772 9.06607C73.51 9.06607 72.7366 9.25898 72.128 9.67048C71.513 10.0691 71.0628 10.7378 71.0628 11.5801C71.0628 11.5801 71.0628 33.5895 71.0628 34.2132C71.0628 35.0683 71.4877 35.7563 72.09 36.1614C72.6921 36.5793 73.453 36.7658 74.2074 36.7658C74.9746 36.7658 75.7481 36.5729 76.3567 36.1614C76.9717 35.7627 77.4281 35.0876 77.4217 34.2517C77.4217 34.2517 77.4217 12.2424 77.4217 11.6187C77.4217 10.7571 76.997 10.0756 76.3947 9.67048ZM142.443 21.3406C142.417 21.1864 142.317 21.0577 142.171 21.0127C142.025 20.9678 141.866 21.0061 141.759 21.122C141.759 21.122 141.669 21.2249 141.48 21.4178C141.296 21.6107 141.01 21.9 140.636 22.2601C139.882 22.9931 138.747 24.0412 137.245 25.295C136.179 26.1887 134.924 27.1853 133.485 28.2527C133.453 27.8283 133.389 27.4297 133.301 27.0567C132.921 25.4879 132.014 24.2983 130.911 23.3467C129.244 21.9193 127.107 20.9805 125.357 19.9582C124.476 19.4438 123.703 18.9166 123.126 18.325C122.549 17.727 122.181 17.0841 122.067 16.2868C122.041 16.139 122.034 15.9846 122.034 15.8303C122.034 15.0072 122.345 14.1456 123.004 13.4962C123.36 13.149 124.418 12.4482 125.914 12.4482C127.772 12.4482 129.344 13.2712 130.226 13.2712C131.221 13.2904 132.083 12.6989 132.343 11.7216C132.393 11.5287 132.419 11.3294 132.419 11.1365C132.419 10.0241 131.506 8.98891 130.264 8.67384C130.264 8.67384 129.142 8.28805 126.771 8.28805C123.468 8.29462 120.76 9.1175 118.859 10.5642C116.957 12.0109 115.885 14.0942 115.885 16.4861C115.885 17.1419 115.968 17.8235 116.126 18.5179C116.842 21.4692 119.708 23.0702 122.352 24.5041C123.683 25.2178 124.983 25.8929 125.953 26.6195C126.935 27.3525 127.557 28.1112 127.69 28.9986C127.709 29.1528 127.721 29.3008 127.721 29.4486C127.721 30.2588 127.397 31.0111 126.713 31.5962C126.022 32.1813 124.931 32.5928 123.391 32.6185H123.245C121.564 32.6251 120.125 32.1299 119.181 31.7119C118.769 31.5126 118.344 31.4162 117.944 31.4162C116.943 31.403 116.106 32.0977 115.973 33.1072C115.956 33.2037 115.953 33.3001 115.953 33.3966C115.953 34.1231 116.334 34.7211 116.854 35.1841C117.64 35.8785 118.756 36.3479 119.814 36.6629C108.136 42.5848 91.9188 47.9344 71.4094 47.9344V47.941V47.9344C50.7035 47.9344 34.3657 42.4819 22.6685 36.4893C25.0777 36.0264 27.024 35.0426 28.476 33.7052C30.53 31.8213 31.5761 29.2558 31.5697 26.5938C31.5697 25.9894 31.5195 25.3721 31.4107 24.7549C31.0431 22.7102 29.9462 21.0898 28.5325 19.7653C26.4149 17.7721 23.581 16.3768 21.2163 14.9751C20.037 14.2742 18.972 13.5734 18.1858 12.8275C17.3932 12.0817 16.8861 11.2972 16.734 10.4163C16.6901 10.1784 16.6641 9.92766 16.6641 9.67689C16.6641 8.54524 17.0952 7.33644 18.0463 6.41054C18.9909 5.48465 20.4681 4.81594 22.6426 4.80952C23.8219 4.80952 25.2039 5.00884 26.8015 5.47821C27.2644 5.61318 27.6892 5.68397 28.0823 5.68397C29.1789 5.70318 29.9969 5.086 30.3265 4.20511C30.4466 3.89005 30.5104 3.57498 30.5104 3.27278C30.5104 2.51405 30.1173 1.8775 29.5657 1.42743C29.0142 0.977337 28.3041 0.675125 27.5559 0.514379C26.0662 0.21217 24.4495 0.00641425 22.7504 0C22.7341 0 22.7195 0 22.7066 0C18.1673 0 14.8704 1.29239 12.7149 3.22135C10.5531 5.14387 9.55139 7.69008 9.55139 10.1206C9.55139 10.6607 9.60166 11.1943 9.69746 11.7152C10.3632 15.2644 13.2606 17.5341 16.2149 19.3731C19.182 21.2056 22.2757 22.6909 23.4487 24.3691C24.0889 25.2628 24.3933 26.343 24.3933 27.3847C24.3933 28.4456 24.0699 29.4551 23.4803 30.1752C22.3645 31.5383 20.2598 32.4578 17.9963 32.4578C16.5636 32.4578 15.08 32.0977 13.7233 31.2811C13.647 31.2298 13.4443 31.1203 13.4253 31.1075C10.173 28.9664 7.5546 26.9474 5.57664 25.295C4.07407 24.0412 2.94561 22.9931 2.19107 22.2601C1.8108 21.9 1.52549 21.6107 1.34159 21.4178C1.15138 21.2249 1.0626 21.122 1.0626 21.122C0.955481 21.0063 0.796423 20.9678 0.650506 21.0127C0.510931 21.0579 0.403331 21.1863 0.38434 21.3406C0.301628 21.9129 0.244751 22.633 0.244751 23.4689C0.244751 23.5333 0.244751 23.5974 0.244751 23.6618V23.7197C0.283719 25.8866 1.00562 27.5583 2.95193 29.3844C3.42114 29.8667 29.5286 56.7884 71.4097 56.7948C113.297 56.7882 139.398 29.8667 139.867 29.3844C141.814 27.5583 142.536 25.8866 142.574 23.7197V23.469C142.574 22.6331 142.518 21.913 142.441 21.3407" fill="#FF5E19"/>
</svg>
