<svg width="38" height="38" viewBox="0 0 38 38" fill="none" xmlns="http://www.w3.org/2000/svg">
<path d="M18.9158 37.7283C29.0602 37.7283 37.2839 29.5046 37.2839 19.3602C37.2839 9.21571 29.0602 0.992004 18.9158 0.992004C8.77131 0.992004 0.547607 9.21571 0.547607 19.3602C0.547607 29.5046 8.77131 37.7283 18.9158 37.7283Z" fill="#2DAAE1"/>
<path d="M29.8768 12.0909C29.0012 12.479 28.0725 12.7336 27.1215 12.8463C28.1243 12.2461 28.875 11.3021 29.2339 10.1898C28.2916 10.7499 27.2603 11.1444 26.1848 11.3562C25.5259 10.6536 24.6711 10.1654 23.7313 9.95479C22.7915 9.74419 21.81 9.82102 20.9144 10.1753C20.0188 10.5295 19.2503 11.1448 18.7088 11.9413C18.1673 12.7378 17.8778 13.6787 17.8778 14.6418C17.8774 15.0104 17.919 15.3778 18.0018 15.737C16.0924 15.6414 14.2245 15.1453 12.5193 14.281C10.8141 13.4167 9.30961 12.2036 8.10361 10.7202C7.48991 11.7774 7.30193 13.0286 7.57788 14.2194C7.85383 15.4102 8.57301 16.4512 9.58914 17.1307C8.82694 17.1072 8.0814 16.9017 7.4148 16.5314V16.5911C7.4146 17.7002 7.79821 18.7751 8.50048 19.6335C9.20275 20.4919 10.1804 21.0808 11.2675 21.3003C10.8552 21.4125 10.4297 21.4688 10.0024 21.4679C9.69891 21.4678 9.39602 21.4394 9.09778 21.3829C9.40486 22.3369 10.0024 23.171 10.8068 23.7688C11.6112 24.3665 12.5822 24.6979 13.5842 24.7167C11.5686 26.2959 9.0088 27.011 6.46655 26.7051C8.53058 28.0276 10.9125 28.7703 13.3625 28.855C15.8124 28.9397 18.24 28.3634 20.3904 27.1866C22.5409 26.0098 24.3349 24.2759 25.5843 22.1668C26.8337 20.0577 27.4924 17.6512 27.4912 15.1998C27.4912 14.9916 27.4866 14.7842 27.4774 14.5775C28.4184 13.8975 29.2308 13.0556 29.8768 12.0909Z" fill="white"/>
</svg>
