<svg width="72" height="53" viewBox="0 0 72 53" fill="none" xmlns="http://www.w3.org/2000/svg">
<path d="M68.9529 29.3541C66.9768 27.378 63.7731 27.378 61.7972 29.3541L53.4504 37.7009C52.5015 38.6498 51.2144 39.183 49.8725 39.183H34.3783V34.1231H46.88C49.6745 34.1231 51.9398 31.8578 51.9398 29.0633V25.9036H32.3905C30.5671 24.7729 28.4173 24.1187 26.1141 24.1187C20.5022 24.1187 15.7982 27.9947 14.5264 33.2149L28.714 47.4025H49.1173C53.1432 47.4025 57.0041 45.8033 59.8509 42.9566L71.2031 31.6043L68.9529 29.3541Z" fill="#FF5A00"/>
<path d="M0 43.8856V52.7318H25.7504L26.3193 52.1629L9.02102 34.8646L0 43.8856Z" fill="#FF5A00"/>
<path d="M44.5074 2.46545C45.2204 2.46545 45.8 1.92239 45.8 1.25435C45.8 0.586312 45.2204 0.0455194 44.5074 0.0455194C43.7943 0.0455194 43.2171 0.586312 43.2147 1.25435C43.2147 1.92239 43.7943 2.46545 44.5074 2.46545ZM49.6634 13.1427H49.6733C50.1705 13.1427 50.6119 13.0245 50.9539 12.8723C51.2982 12.7178 51.5408 12.5406 51.6644 12.3815C51.7396 12.277 51.7881 12.152 51.7881 12.0179C51.7881 11.918 51.7639 11.8157 51.7129 11.7135C51.5868 11.4794 51.32 11.3658 51.0848 11.3613C51.0413 11.3613 50.9975 11.3659 50.9563 11.3749C50.8278 11.409 50.738 11.4498 50.6483 11.4771C50.5561 11.5067 50.4591 11.5271 50.2918 11.5271C50.0177 11.5271 49.8528 11.4271 49.7437 11.3249C49.7245 11.3044 49.5569 11.109 49.4938 10.8636C49.392 10.4591 49.3847 9.88198 49.3799 9.47753C49.3873 9.32983 49.3873 1.17022 49.3873 0.949818C49.3873 0.647608 49.2224 0.404478 48.992 0.261331C48.7616 0.113633 48.4706 0.0477384 48.182 0.0477384C47.8886 0.0477384 47.5927 0.115908 47.3598 0.261331C47.1246 0.402203 46.95 0.63852 46.9524 0.936184V10.5955C46.9524 11.134 47.1149 11.7657 47.5418 12.2701C47.9662 12.7745 48.6598 13.1426 49.6638 13.1426L49.6634 13.1427ZM54.6476 5.18754C55.2588 4.36953 55.899 4.27183 56.1998 4.26955C56.6921 4.2742 57.1917 4.57403 57.3348 5.29206C57.359 5.41249 57.3689 5.53065 57.3689 5.64426C57.3689 6.13961 57.1652 6.56906 56.8596 6.89626C56.1296 7.65518 55.1134 7.87105 54.039 7.97784C54.039 7.88923 54.039 7.79834 54.039 7.70745C54.039 6.82128 54.1676 5.82149 54.6478 5.18754H54.6476ZM53.035 11.9861C53.8353 12.6973 54.9267 13.1313 56.2921 13.1313H56.2983C57.0404 13.1313 57.7291 13.0109 58.2457 12.8109C58.5028 12.7086 58.7186 12.5882 58.8787 12.4451C59.0363 12.3019 59.143 12.127 59.143 11.9315C59.143 11.902 59.143 11.8702 59.1331 11.8384C59.0822 11.5066 58.7911 11.2817 58.4613 11.2885C58.3788 11.2885 58.2964 11.2999 58.2139 11.3248C57.8089 11.4453 57.4184 11.5112 56.9407 11.5112C56.8049 11.5112 56.6666 11.5065 56.5163 11.4953C55.5074 11.4203 54.9132 10.8522 54.5543 10.2706C54.3772 9.98197 54.2608 9.69112 54.1929 9.46845C54.1612 9.37074 54.1395 9.2844 54.125 9.2185C55.5049 9.16399 56.6982 9.014 57.8259 8.45503C58.4031 8.15282 59.1161 7.66429 59.4848 6.98489C59.7151 6.54408 59.8364 6.03737 59.8364 5.57838C59.8364 5.43295 59.824 5.29207 59.7997 5.16029C59.5645 3.9151 58.3301 2.96985 56.419 2.97439C55.0899 2.97439 53.3802 3.4652 52.3373 4.97624C51.9372 5.56474 51.3988 6.69405 51.3988 8.12101C51.3988 8.46184 51.4305 8.81858 51.5006 9.18896C51.731 10.2887 52.2379 11.2726 53.0358 11.9861L53.035 11.9861ZM29.3899 12.7791C29.6203 12.9268 29.9114 12.9927 30.1999 12.9927C30.4934 12.9927 30.7893 12.9245 31.0245 12.7791C31.2573 12.6382 31.432 12.3996 31.4296 12.1042C31.4296 12.1042 31.4296 6.82129 31.4296 6.79629C31.4438 6.3873 31.5605 5.83969 31.82 5.41023C32.082 4.97851 32.4578 4.67402 33.0496 4.67176C33.3212 4.67408 33.5079 4.75355 33.6607 4.8808C33.8887 5.07394 34.0221 5.3966 34.0924 5.7238C34.1603 6.051 34.1676 6.37594 34.1676 6.55998C34.1676 6.60312 34.1676 11.9475 34.1676 12.0906C34.1676 12.3974 34.3447 12.6405 34.5872 12.7814C34.8322 12.9268 35.1377 12.9927 35.4433 12.9927C35.7537 12.9927 36.0665 12.9245 36.3164 12.7814C36.5613 12.6405 36.7505 12.4042 36.7481 12.1042V6.79175C36.7648 6.38502 36.8814 5.83741 37.1385 5.41023C37.4029 4.97851 37.7787 4.67402 38.3681 4.67176C38.6397 4.67408 38.8289 4.75355 38.9816 4.8808C39.2072 5.07394 39.343 5.39887 39.411 5.72607C39.4812 6.05328 39.4886 6.37594 39.4886 6.55998C39.4886 6.60312 39.4886 11.7498 39.4886 12.0906C39.4886 12.3974 39.668 12.6405 39.9105 12.7814C40.1531 12.9268 40.4611 12.9927 40.7666 12.9927C41.077 12.9927 41.3899 12.9245 41.6373 12.7814C41.8846 12.6405 42.0738 12.4042 42.0714 12.1042V6.89173C42.0714 5.57156 41.7949 4.58768 41.2784 3.92192C40.7593 3.25615 39.993 2.93122 39.0908 2.9335C38.2202 2.9335 37.5557 3.32659 37.09 3.77649C36.7698 4.08552 36.5395 4.41953 36.3867 4.68312C36.1708 4.15368 35.8653 3.74014 35.4748 3.4493C35.0067 3.10164 34.4223 2.9335 33.7675 2.9335C32.6518 2.93582 31.8879 3.57199 31.4199 4.15823V4.10594C31.4199 3.80145 31.2573 3.5606 31.0269 3.41745C30.7966 3.26975 30.508 3.20386 30.2194 3.20386C29.9235 3.20386 29.6276 3.27203 29.3948 3.41745C29.1595 3.55833 28.9874 3.79464 28.9874 4.0923C28.9874 4.0923 28.9874 11.8702 28.9874 12.0906C28.9874 12.3928 29.1498 12.6359 29.3802 12.7791L29.3899 12.7791ZM45.3212 3.41745C45.0908 3.26975 44.8022 3.20386 44.5112 3.20386C44.2177 3.20386 43.9219 3.27203 43.689 3.41745C43.4538 3.55833 43.2816 3.79464 43.2816 4.0923C43.2816 4.0923 43.2816 11.8702 43.2816 12.0906C43.2816 12.3928 43.4441 12.6359 43.6745 12.7791C43.9048 12.9268 44.1959 12.9927 44.4845 12.9927C44.778 12.9927 45.0739 12.9245 45.3067 12.7791C45.5419 12.6382 45.7165 12.3996 45.7141 12.1042C45.7141 12.1042 45.7141 4.32635 45.7141 4.10594C45.7141 3.80145 45.5516 3.5606 45.3212 3.41745ZM70.5871 7.54156C70.5772 7.48706 70.5387 7.44158 70.4828 7.42568C70.4269 7.40982 70.3664 7.42335 70.3252 7.4643C70.3252 7.4643 70.2911 7.50065 70.2185 7.56882C70.1482 7.63698 70.039 7.73924 69.8959 7.86649C69.6073 8.12552 69.1732 8.4959 68.5985 8.93899C68.191 9.25482 67.7108 9.60702 67.1603 9.98421C67.1479 9.83425 67.1237 9.69336 67.09 9.56158C66.9444 9.00715 66.5976 8.58679 66.1756 8.25049C65.5378 7.74605 64.7205 7.41431 64.0512 7.05303C63.7141 6.87125 63.4182 6.68493 63.1975 6.47588C62.9768 6.26456 62.8361 6.03733 62.7925 5.75558C62.7825 5.70334 62.78 5.64878 62.78 5.59425C62.78 5.30341 62.8989 4.99892 63.1511 4.76942C63.2869 4.64673 63.6919 4.39905 64.2642 4.39905C64.9748 4.39905 65.5763 4.6899 65.9134 4.6899C66.2941 4.69669 66.624 4.48767 66.7234 4.14228C66.7426 4.07412 66.7526 4.00368 66.7526 3.93551C66.7526 3.54242 66.4034 3.17659 65.928 3.06525C65.928 3.06525 65.4988 2.92891 64.5918 2.92891C63.3282 2.93124 62.2926 3.22203 61.5651 3.73329C60.8375 4.24454 60.4276 4.98074 60.4276 5.82601C60.4276 6.05778 60.4593 6.29864 60.5198 6.54405C60.7939 7.587 61.8901 8.15278 62.9014 8.6595C63.4107 8.91171 63.9078 9.1503 64.2789 9.40706C64.6548 9.6661 64.8925 9.93422 64.9434 10.2478C64.9509 10.3023 64.9552 10.3546 64.9552 10.4068C64.9552 10.6931 64.8316 10.959 64.5696 11.1658C64.3053 11.3725 63.8881 11.518 63.2988 11.5271H63.2429C62.6002 11.5294 62.0497 11.3544 61.6884 11.2067C61.5307 11.1362 61.3682 11.1022 61.2155 11.1022C60.8323 11.0975 60.5121 11.343 60.4612 11.6998C60.455 11.7339 60.4537 11.7679 60.4537 11.802C60.4537 12.0588 60.5993 12.2701 60.7981 12.4337C61.0989 12.6791 61.5257 12.845 61.9307 12.9563C57.4634 15.049 51.2597 16.9395 43.4142 16.9395V16.9419V16.9395C35.4934 16.9395 29.2436 15.0127 24.7691 12.8949C25.6907 12.7313 26.4352 12.3837 26.9906 11.9111C27.7764 11.2453 28.1765 10.3387 28.1741 9.39798C28.1741 9.18438 28.1549 8.96625 28.1132 8.74811C27.9726 8.02554 27.553 7.45294 27.0122 6.98486C26.2022 6.28046 25.1181 5.78739 24.2135 5.29204C23.7624 5.04437 23.355 4.79669 23.0542 4.53311C22.7511 4.26953 22.557 3.99232 22.4989 3.68102C22.4821 3.59695 22.4721 3.50833 22.4721 3.41971C22.4721 3.0198 22.637 2.59262 23.0009 2.26542C23.3622 1.93822 23.9273 1.7019 24.7591 1.69963C25.2102 1.69963 25.7389 1.77007 26.3501 1.93594C26.5271 1.98364 26.6896 2.00866 26.84 2.00866C27.2595 2.01544 27.5724 1.79734 27.6985 1.48604C27.7444 1.37471 27.7689 1.26336 27.7689 1.15657C27.7689 0.88844 27.6185 0.663488 27.4075 0.504439C27.1965 0.345381 26.9249 0.238582 26.6386 0.181776C26.0688 0.0749786 25.4503 0.00226673 24.8004 0C24.7941 0 24.7885 0 24.7836 0C23.0472 0 21.786 0.456717 20.9614 1.13839C20.1345 1.81779 19.7513 2.7176 19.7513 3.57651C19.7513 3.76737 19.7705 3.95596 19.8072 4.14002C20.0618 5.39429 21.1702 6.19639 22.3003 6.84625C23.4353 7.49384 24.6188 8.01872 25.0675 8.61178C25.3124 8.92762 25.4288 9.30935 25.4288 9.67746C25.4288 10.0524 25.3051 10.4091 25.0796 10.6636C24.6527 11.1453 23.8476 11.4703 22.9818 11.4703C22.4337 11.4703 21.8662 11.343 21.3472 11.0544C21.318 11.0363 21.2405 10.9976 21.2332 10.9931C19.9891 10.2364 18.9874 9.52295 18.2308 8.93899C17.656 8.4959 17.2243 8.12552 16.9357 7.86649C16.7902 7.73924 16.6811 7.63698 16.6107 7.56882C16.538 7.50066 16.504 7.4643 16.504 7.4643C16.463 7.4234 16.4022 7.4098 16.3464 7.42568C16.293 7.44164 16.2518 7.48702 16.2446 7.54156C16.2129 7.74379 16.1912 7.99828 16.1912 8.29367C16.1912 8.31642 16.1912 8.33909 16.1912 8.36184V8.38231C16.2061 9.14805 16.4822 9.73884 17.2268 10.3841C17.4062 10.5546 27.3933 20.0684 43.4143 20.0707C59.4377 20.0684 69.4223 10.5546 69.6018 10.3841C70.3463 9.73884 70.6228 9.14805 70.6373 8.38231V8.29369C70.6373 7.9983 70.6155 7.74381 70.5864 7.54158" fill="#FF5A00"/>
</svg>
