<svg width="57" height="62" viewBox="0 0 57 62" fill="none" xmlns="http://www.w3.org/2000/svg">
<path d="M54.8956 10.3332C54.8956 14.9702 51.137 18.7293 46.4999 18.7293C41.8629 18.7293 38.1042 14.9702 38.1042 10.3332C38.1042 5.69661 41.8629 1.9375 46.4999 1.9375C51.137 1.9375 54.8956 5.69661 54.8956 10.3332V10.3332Z" fill="#EB7F02"/>
<path d="M46.4999 20.6668C40.8009 20.6668 36.1667 16.0321 36.1667 10.3332C36.1667 4.63467 40.8009 0 46.4999 0C52.1989 0 56.8331 4.63467 56.8331 10.3332C56.8331 16.0321 52.1989 20.6668 46.4999 20.6668ZM46.4999 3.875C42.9376 3.875 40.0417 6.77368 40.0417 10.3332C40.0417 13.8931 42.9376 16.7918 46.4999 16.7918C50.0623 16.7918 52.9581 13.8931 52.9581 10.3332C52.9581 6.77368 50.0623 3.875 46.4999 3.875Z" fill="#EB7F02"/>
<path d="M54.8956 51.6669C54.8956 56.3034 51.137 60.0625 46.4999 60.0625C41.8629 60.0625 38.1042 56.3034 38.1042 51.6669C38.1042 47.0298 41.8629 43.2707 46.4999 43.2707C51.137 43.2707 54.8956 47.0298 54.8956 51.6669V51.6669Z" fill="#EB7F02"/>
<path d="M46.4999 62C40.8009 62 36.1667 57.3654 36.1667 51.6669C36.1667 45.9679 40.8009 41.3332 46.4999 41.3332C52.1989 41.3332 56.8331 45.9679 56.8331 51.6669C56.8331 57.3654 52.1989 62 46.4999 62ZM46.4999 45.2082C42.9376 45.2082 40.0417 48.1069 40.0417 51.6669C40.0417 55.2264 42.9376 58.125 46.4999 58.125C50.0623 58.125 52.9581 55.2264 52.9581 51.6669C52.9581 48.1069 50.0623 45.2082 46.4999 45.2082V45.2082Z" fill="#EB7F02"/>
<path d="M18.7293 31C18.7293 35.6371 14.9702 39.3957 10.3332 39.3957C5.69661 39.3957 1.9375 35.6371 1.9375 31C1.9375 26.363 5.69661 22.6043 10.3332 22.6043C14.9702 22.6043 18.7293 26.363 18.7293 31Z" fill="#EB7F02"/>
<path d="M10.3332 41.3332C4.63467 41.3332 0 36.699 0 31C0 25.301 4.63467 20.6668 10.3332 20.6668C16.0321 20.6668 20.6668 25.301 20.6668 31C20.6668 36.699 16.0321 41.3332 10.3332 41.3332ZM10.3332 24.5418C6.77084 24.5418 3.875 27.44 3.875 31C3.875 34.56 6.77084 37.4582 10.3332 37.4582C13.896 37.4582 16.7918 34.56 16.7918 31C16.7918 27.44 13.896 24.5418 10.3332 24.5418Z" fill="#EB7F02"/>
<path d="M16.4326 29.7602C15.5334 29.7602 14.6602 29.2924 14.1848 28.4556C13.4795 27.2181 13.9137 25.6397 15.1512 24.9316L39.1216 11.2659C40.359 10.5555 41.9375 10.9897 42.6456 12.2319C43.3509 13.4693 42.9166 15.0478 41.6792 15.7559L17.7083 29.4215C17.3053 29.6514 16.8664 29.7602 16.4326 29.7602V29.7602Z" fill="#EB7F02"/>
<path d="M40.4008 51.0727C39.9666 51.0727 39.5276 50.9639 39.1246 50.734L15.1537 37.0684C13.9163 36.3631 13.4826 34.7846 14.1878 33.5444C14.8903 32.3046 16.4711 31.868 17.7114 32.5785L41.6823 46.2441C42.9197 46.9494 43.3534 48.5278 42.6482 49.7681C42.1704 50.6049 41.2972 51.0727 40.4008 51.0727V51.0727Z" fill="#EB7F02"/>
</svg>
