<svg width="42" height="29" viewBox="0 0 42 29" fill="none" xmlns="http://www.w3.org/2000/svg">
<path d="M21.8905 28.962L13.2895 28.8047C10.5046 28.7499 7.71285 28.8593 4.98262 28.2914C0.829306 27.4429 0.53507 23.2827 0.227184 19.793C-0.197053 14.887 -0.0328183 9.89196 0.76777 5.02689C1.21973 2.29708 2.99837 0.668177 5.74898 0.490922C15.0343 -0.152363 24.3814 -0.0761266 33.6461 0.223989C34.6246 0.251501 35.6098 0.401874 36.5746 0.573039C41.3372 1.40786 41.4533 6.12234 41.762 10.0911C42.0699 14.1007 41.9399 18.131 41.3514 22.1133C40.8793 25.4106 39.976 28.1757 36.164 28.4426C31.3878 28.7917 26.7212 29.0727 21.9315 28.9832C21.9317 28.962 21.9042 28.962 21.8905 28.962ZM16.8339 20.6142C20.4332 18.5476 23.9638 16.5155 27.5425 14.4628C23.9365 12.3962 20.4126 10.3641 16.8339 8.31136V20.6142Z" fill="#FF0000"/>
</svg>
